<mxfile host="65bd71144e" modified="2020-12-30T13:49:10.729Z" agent="5.0 (Macintosh; Intel Mac OS X 10_13_4) AppleWebKit/537.36 (KHTML, like Gecko) Code/1.52.1 Chrome/83.0.4103.122 Electron/9.3.5 Safari/537.36" etag="BzQb6GctRdyAS7oQMJPf" version="13.10.0" type="embed">
    <diagram id="C5RBs43oDa-KdzZeNtuy" name="Page-1">
        <mxGraphModel dx="3489" dy="-320" grid="0" gridSize="10" guides="1" tooltips="1" connect="1" arrows="1" fold="1" page="1" pageScale="1" pageWidth="1169" pageHeight="827" math="0" shadow="0">
            <root>
                <mxCell id="WIyWlLk6GJQsqaUBKTNV-0"/>
                <mxCell id="WIyWlLk6GJQsqaUBKTNV-1" style="" parent="WIyWlLk6GJQsqaUBKTNV-0"/>
                <mxCell id="ha2oRqozHU_V52BWfn8i-13" value="" style="edgeStyle=orthogonalEdgeStyle;rounded=0;orthogonalLoop=1;jettySize=auto;html=1;" parent="WIyWlLk6GJQsqaUBKTNV-1" source="ha2oRqozHU_V52BWfn8i-0" target="ha2oRqozHU_V52BWfn8i-11" edge="1">
                    <mxGeometry relative="1" as="geometry"/>
                </mxCell>
                <mxCell id="ha2oRqozHU_V52BWfn8i-0" value="User opens program" style="strokeWidth=2;html=1;shape=mxgraph.flowchart.start_1;whiteSpace=wrap;" parent="WIyWlLk6GJQsqaUBKTNV-1" vertex="1">
                    <mxGeometry x="-693" y="1708" width="100" height="60" as="geometry"/>
                </mxCell>
                <mxCell id="ha2oRqozHU_V52BWfn8i-20" value="" style="edgeStyle=orthogonalEdgeStyle;rounded=0;orthogonalLoop=1;jettySize=auto;html=1;" parent="WIyWlLk6GJQsqaUBKTNV-1" source="ha2oRqozHU_V52BWfn8i-11" target="ha2oRqozHU_V52BWfn8i-19" edge="1">
                    <mxGeometry relative="1" as="geometry"/>
                </mxCell>
                <mxCell id="ha2oRqozHU_V52BWfn8i-22" value="" style="edgeStyle=orthogonalEdgeStyle;rounded=0;orthogonalLoop=1;jettySize=auto;html=1;entryX=-0.002;entryY=0.625;entryDx=0;entryDy=0;entryPerimeter=0;" parent="WIyWlLk6GJQsqaUBKTNV-1" source="ha2oRqozHU_V52BWfn8i-11" target="ha2oRqozHU_V52BWfn8i-66" edge="1">
                    <mxGeometry relative="1" as="geometry">
                        <mxPoint x="-493" y="1898" as="targetPoint"/>
                    </mxGeometry>
                </mxCell>
                <mxCell id="ha2oRqozHU_V52BWfn8i-11" value="Already have an account?" style="strokeWidth=2;html=1;shape=mxgraph.flowchart.decision;whiteSpace=wrap;" parent="WIyWlLk6GJQsqaUBKTNV-1" vertex="1">
                    <mxGeometry x="-708" y="1848" width="130" height="100" as="geometry"/>
                </mxCell>
                <mxCell id="ha2oRqozHU_V52BWfn8i-24" value="" style="edgeStyle=orthogonalEdgeStyle;rounded=0;orthogonalLoop=1;jettySize=auto;html=1;entryX=0.5;entryY=0;entryDx=0;entryDy=0;" parent="WIyWlLk6GJQsqaUBKTNV-1" source="ha2oRqozHU_V52BWfn8i-19" target="ha2oRqozHU_V52BWfn8i-25" edge="1">
                    <mxGeometry relative="1" as="geometry">
                        <mxPoint x="-853" y="1998" as="targetPoint"/>
                    </mxGeometry>
                </mxCell>
                <mxCell id="ha2oRqozHU_V52BWfn8i-19" value="Register as new patient" style="whiteSpace=wrap;html=1;strokeWidth=2;" parent="WIyWlLk6GJQsqaUBKTNV-1" vertex="1">
                    <mxGeometry x="-913" y="1868" width="120" height="60" as="geometry"/>
                </mxCell>
                <mxCell id="ha2oRqozHU_V52BWfn8i-33" value="" style="edgeStyle=orthogonalEdgeStyle;rounded=0;orthogonalLoop=1;jettySize=auto;html=1;exitX=0.5;exitY=1;exitDx=0;exitDy=0;entryX=0.5;entryY=0;entryDx=0;entryDy=0;" parent="WIyWlLk6GJQsqaUBKTNV-1" source="ha2oRqozHU_V52BWfn8i-66" target="ha2oRqozHU_V52BWfn8i-75" edge="1">
                    <mxGeometry relative="1" as="geometry">
                        <mxPoint x="-423" y="1928" as="sourcePoint"/>
                        <mxPoint x="-423" y="1998" as="targetPoint"/>
                    </mxGeometry>
                </mxCell>
                <mxCell id="ha2oRqozHU_V52BWfn8i-27" value="" style="edgeStyle=orthogonalEdgeStyle;rounded=0;orthogonalLoop=1;jettySize=auto;html=1;entryX=0.5;entryY=0;entryDx=0;entryDy=0;" parent="WIyWlLk6GJQsqaUBKTNV-1" source="pnRQrC9CDRDMa9Q650ak-199" target="ha2oRqozHU_V52BWfn8i-56" edge="1">
                    <mxGeometry relative="1" as="geometry">
                        <mxPoint x="-853" y="2168" as="targetPoint"/>
                    </mxGeometry>
                </mxCell>
                <mxCell id="ha2oRqozHU_V52BWfn8i-25" value="Enter registration details" style="html=1;strokeWidth=2;shape=manualInput;whiteSpace=wrap;rounded=1;size=26;arcSize=11;" parent="WIyWlLk6GJQsqaUBKTNV-1" vertex="1">
                    <mxGeometry x="-903" y="1998" width="100" height="80" as="geometry"/>
                </mxCell>
                <mxCell id="ha2oRqozHU_V52BWfn8i-64" value="" style="edgeStyle=orthogonalEdgeStyle;rounded=0;orthogonalLoop=1;jettySize=auto;html=1;endArrow=classic;endFill=1;exitX=0.5;exitY=1;exitDx=0;exitDy=0;entryX=0.5;entryY=0;entryDx=0;entryDy=0;" parent="WIyWlLk6GJQsqaUBKTNV-1" source="ha2oRqozHU_V52BWfn8i-75" target="ha2oRqozHU_V52BWfn8i-74" edge="1">
                    <mxGeometry relative="1" as="geometry">
                        <mxPoint x="-423" y="2078" as="sourcePoint"/>
                        <mxPoint x="-423" y="2148" as="targetPoint"/>
                    </mxGeometry>
                </mxCell>
                <mxCell id="ha2oRqozHU_V52BWfn8i-36" value="Login failed" style="whiteSpace=wrap;html=1;strokeWidth=2;" parent="WIyWlLk6GJQsqaUBKTNV-1" vertex="1">
                    <mxGeometry x="-483" y="2283" width="120" height="60" as="geometry"/>
                </mxCell>
                <mxCell id="ha2oRqozHU_V52BWfn8i-55" value="Store new user data" style="strokeWidth=2;html=1;shape=mxgraph.flowchart.database;whiteSpace=wrap;" parent="WIyWlLk6GJQsqaUBKTNV-1" vertex="1">
                    <mxGeometry x="-900.5" y="2292" width="95" height="90" as="geometry"/>
                </mxCell>
                <mxCell id="ha2oRqozHU_V52BWfn8i-57" value="" style="edgeStyle=orthogonalEdgeStyle;rounded=0;orthogonalLoop=1;jettySize=auto;html=1;endArrow=classic;endFill=1;" parent="WIyWlLk6GJQsqaUBKTNV-1" source="ha2oRqozHU_V52BWfn8i-56" target="ha2oRqozHU_V52BWfn8i-55" edge="1">
                    <mxGeometry relative="1" as="geometry"/>
                </mxCell>
                <mxCell id="ha2oRqozHU_V52BWfn8i-56" value="&lt;span&gt;Succesful&amp;nbsp;&lt;/span&gt;&lt;br&gt;&lt;span&gt;Registration&lt;/span&gt;" style="rounded=0;whiteSpace=wrap;html=1;" parent="WIyWlLk6GJQsqaUBKTNV-1" vertex="1">
                    <mxGeometry x="-1123" y="2307" width="120" height="60" as="geometry"/>
                </mxCell>
                <mxCell id="ha2oRqozHU_V52BWfn8i-66" value="Enter login details&lt;br&gt;as existing user" style="html=1;strokeWidth=2;shape=manualInput;whiteSpace=wrap;rounded=1;size=26;arcSize=11;" parent="WIyWlLk6GJQsqaUBKTNV-1" vertex="1">
                    <mxGeometry x="-481.75" y="1848" width="117.5" height="80" as="geometry"/>
                </mxCell>
                <mxCell id="ha2oRqozHU_V52BWfn8i-68" value="Yes" style="text;html=1;strokeColor=none;fillColor=none;align=center;verticalAlign=middle;whiteSpace=wrap;rounded=0;" parent="WIyWlLk6GJQsqaUBKTNV-1" vertex="1">
                    <mxGeometry x="-553" y="1878" width="40" height="20" as="geometry"/>
                </mxCell>
                <mxCell id="ha2oRqozHU_V52BWfn8i-76" value="" style="edgeStyle=orthogonalEdgeStyle;rounded=0;orthogonalLoop=1;jettySize=auto;html=1;endArrow=classic;endFill=1;" parent="WIyWlLk6GJQsqaUBKTNV-1" source="ha2oRqozHU_V52BWfn8i-74" target="ha2oRqozHU_V52BWfn8i-36" edge="1">
                    <mxGeometry relative="1" as="geometry"/>
                </mxCell>
                <mxCell id="ha2oRqozHU_V52BWfn8i-74" value="&amp;nbsp;valid details?)" style="rhombus;whiteSpace=wrap;html=1;strokeWidth=2;" parent="WIyWlLk6GJQsqaUBKTNV-1" vertex="1">
                    <mxGeometry x="-475.5" y="2148" width="105" height="80" as="geometry"/>
                </mxCell>
                <mxCell id="ha2oRqozHU_V52BWfn8i-75" value="Login&amp;nbsp;&lt;br&gt;Data&lt;br&gt;Validation" style="shape=cylinder;whiteSpace=wrap;html=1;boundedLbl=1;backgroundOutline=1;strokeWidth=2;" parent="WIyWlLk6GJQsqaUBKTNV-1" vertex="1">
                    <mxGeometry x="-463" y="1998" width="80" height="80" as="geometry"/>
                </mxCell>
                <mxCell id="ha2oRqozHU_V52BWfn8i-77" value="" style="endArrow=classic;html=1;exitX=1;exitY=0.5;exitDx=0;exitDy=0;entryX=0;entryY=0.5;entryDx=0;entryDy=0;" parent="WIyWlLk6GJQsqaUBKTNV-1" source="ha2oRqozHU_V52BWfn8i-74" edge="1">
                    <mxGeometry width="50" height="50" relative="1" as="geometry">
                        <mxPoint x="-466" y="2325" as="sourcePoint"/>
                        <mxPoint x="-191" y="2188" as="targetPoint"/>
                    </mxGeometry>
                </mxCell>
                <mxCell id="ha2oRqozHU_V52BWfn8i-79" value="No" style="text;html=1;strokeColor=none;fillColor=none;align=center;verticalAlign=middle;whiteSpace=wrap;rounded=0;" parent="WIyWlLk6GJQsqaUBKTNV-1" vertex="1">
                    <mxGeometry x="-463" y="2241" width="40" height="20" as="geometry"/>
                </mxCell>
                <mxCell id="ha2oRqozHU_V52BWfn8i-81" value="No" style="text;html=1;strokeColor=none;fillColor=none;align=center;verticalAlign=middle;whiteSpace=wrap;rounded=0;" parent="WIyWlLk6GJQsqaUBKTNV-1" vertex="1">
                    <mxGeometry x="-763" y="1878" width="40" height="20" as="geometry"/>
                </mxCell>
                <mxCell id="pnRQrC9CDRDMa9Q650ak-1" value="&lt;font style=&quot;font-size: 24px&quot;&gt;Assign User Privileges&lt;/font&gt;" style="rounded=0;whiteSpace=wrap;html=1;" parent="WIyWlLk6GJQsqaUBKTNV-1" vertex="1">
                    <mxGeometry x="-165" y="2154" width="316" height="60" as="geometry"/>
                </mxCell>
                <mxCell id="pnRQrC9CDRDMa9Q650ak-6" value="Patient" style="shape=umlActor;verticalLabelPosition=bottom;verticalAlign=top;html=1;outlineConnect=0;" parent="WIyWlLk6GJQsqaUBKTNV-1" vertex="1">
                    <mxGeometry x="639" y="1184" width="80" height="180" as="geometry"/>
                </mxCell>
                <mxCell id="pnRQrC9CDRDMa9Q650ak-58" value="registration input validation" style="rounded=0;whiteSpace=wrap;html=1;" parent="WIyWlLk6GJQsqaUBKTNV-1" vertex="1">
                    <mxGeometry x="-913" y="2128" width="120" height="60" as="geometry"/>
                </mxCell>
                <mxCell id="pnRQrC9CDRDMa9Q650ak-59" value="" style="edgeStyle=orthogonalEdgeStyle;rounded=0;orthogonalLoop=1;jettySize=auto;html=1;entryX=0.5;entryY=0;entryDx=0;entryDy=0;" parent="WIyWlLk6GJQsqaUBKTNV-1" source="ha2oRqozHU_V52BWfn8i-25" target="pnRQrC9CDRDMa9Q650ak-58" edge="1">
                    <mxGeometry relative="1" as="geometry">
                        <mxPoint x="-853" y="2233" as="targetPoint"/>
                        <mxPoint x="-853" y="2078" as="sourcePoint"/>
                    </mxGeometry>
                </mxCell>
                <mxCell id="pnRQrC9CDRDMa9Q650ak-203" value="" style="edgeStyle=orthogonalEdgeStyle;rounded=0;orthogonalLoop=1;jettySize=auto;html=1;endArrow=classic;endFill=1;entryX=-0.01;entryY=0.6;entryDx=0;entryDy=0;entryPerimeter=0;" parent="WIyWlLk6GJQsqaUBKTNV-1" source="pnRQrC9CDRDMa9Q650ak-199" target="ha2oRqozHU_V52BWfn8i-25" edge="1">
                    <mxGeometry relative="1" as="geometry">
                        <mxPoint x="-1063" y="1928" as="targetPoint"/>
                        <Array as="points">
                            <mxPoint x="-1063" y="2046"/>
                        </Array>
                    </mxGeometry>
                </mxCell>
                <mxCell id="pnRQrC9CDRDMa9Q650ak-199" value="1. User already exists?&lt;br&gt;2. Password not strong?" style="strokeWidth=2;html=1;shape=mxgraph.flowchart.decision;whiteSpace=wrap;" parent="WIyWlLk6GJQsqaUBKTNV-1" vertex="1">
                    <mxGeometry x="-1133" y="2108" width="140" height="100" as="geometry"/>
                </mxCell>
                <mxCell id="pnRQrC9CDRDMa9Q650ak-200" value="" style="edgeStyle=orthogonalEdgeStyle;rounded=0;orthogonalLoop=1;jettySize=auto;html=1;entryX=1;entryY=0.5;entryDx=0;entryDy=0;entryPerimeter=0;" parent="WIyWlLk6GJQsqaUBKTNV-1" source="pnRQrC9CDRDMa9Q650ak-58" target="pnRQrC9CDRDMa9Q650ak-199" edge="1">
                    <mxGeometry relative="1" as="geometry">
                        <mxPoint x="-1223" y="2288" as="targetPoint"/>
                        <mxPoint x="-913" y="2158" as="sourcePoint"/>
                    </mxGeometry>
                </mxCell>
                <mxCell id="pnRQrC9CDRDMa9Q650ak-201" value="Yes" style="text;html=1;strokeColor=none;fillColor=none;align=center;verticalAlign=middle;whiteSpace=wrap;rounded=0;" parent="WIyWlLk6GJQsqaUBKTNV-1" vertex="1">
                    <mxGeometry x="-1103" y="2241" width="40" height="20" as="geometry"/>
                </mxCell>
                <mxCell id="pnRQrC9CDRDMa9Q650ak-204" value="No" style="text;html=1;strokeColor=none;fillColor=none;align=center;verticalAlign=middle;whiteSpace=wrap;rounded=0;" parent="WIyWlLk6GJQsqaUBKTNV-1" vertex="1">
                    <mxGeometry x="-1003" y="2028" width="40" height="20" as="geometry"/>
                </mxCell>
                <mxCell id="pnRQrC9CDRDMa9Q650ak-241" value="" style="edgeStyle=orthogonalEdgeStyle;rounded=0;orthogonalLoop=1;jettySize=auto;html=1;endArrow=classic;endFill=1;" parent="WIyWlLk6GJQsqaUBKTNV-1" source="pnRQrC9CDRDMa9Q650ak-240" edge="1">
                    <mxGeometry relative="1" as="geometry">
                        <mxPoint x="1452.37" y="1047.06" as="targetPoint"/>
                    </mxGeometry>
                </mxCell>
                <mxCell id="29" value="" style="edgeStyle=orthogonalEdgeStyle;rounded=0;orthogonalLoop=1;jettySize=auto;html=1;strokeColor=#000000;fillColor=#FFFFFF;" parent="WIyWlLk6GJQsqaUBKTNV-1" source="pnRQrC9CDRDMa9Q650ak-240" target="15" edge="1">
                    <mxGeometry relative="1" as="geometry"/>
                </mxCell>
                <mxCell id="pnRQrC9CDRDMa9Q650ak-240" value="Have a referral numbers?" style="rhombus;whiteSpace=wrap;html=1;strokeWidth=2;" parent="WIyWlLk6GJQsqaUBKTNV-1" vertex="1">
                    <mxGeometry x="1199.25" y="1007.06" width="180" height="80" as="geometry"/>
                </mxCell>
                <mxCell id="pnRQrC9CDRDMa9Q650ak-242" value="Yes" style="text;html=1;strokeColor=none;fillColor=none;align=center;verticalAlign=middle;whiteSpace=wrap;rounded=0;" parent="WIyWlLk6GJQsqaUBKTNV-1" vertex="1">
                    <mxGeometry x="1399.25" y="1024.06" width="40" height="20" as="geometry"/>
                </mxCell>
                <mxCell id="pnRQrC9CDRDMa9Q650ak-245" value="No" style="text;html=1;strokeColor=none;fillColor=none;align=center;verticalAlign=middle;whiteSpace=wrap;rounded=0;" parent="WIyWlLk6GJQsqaUBKTNV-1" vertex="1">
                    <mxGeometry x="1291.25" y="977.0600000000001" width="40" height="20" as="geometry"/>
                </mxCell>
                <mxCell id="1" value="&lt;font style=&quot;font-size: 24px&quot;&gt;&lt;br&gt;&lt;/font&gt;" style="text;html=1;align=left;verticalAlign=middle;resizable=0;points=[];autosize=1;" parent="WIyWlLk6GJQsqaUBKTNV-1" vertex="1">
                    <mxGeometry x="-1256" y="1832" width="10" height="22" as="geometry"/>
                </mxCell>
                <mxCell id="3" value="" style="endArrow=classic;html=1;exitX=1;exitY=0.5;exitDx=0;exitDy=0;entryX=0.5;entryY=1;entryDx=0;entryDy=0;exitPerimeter=0;entryPerimeter=0;" parent="WIyWlLk6GJQsqaUBKTNV-1" source="ha2oRqozHU_V52BWfn8i-55" target="ha2oRqozHU_V52BWfn8i-11" edge="1">
                    <mxGeometry width="50" height="50" relative="1" as="geometry">
                        <mxPoint x="-412.99999999999955" y="2238" as="sourcePoint"/>
                        <mxPoint x="-502.99999999999955" y="2618" as="targetPoint"/>
                    </mxGeometry>
                </mxCell>
                <mxCell id="15" value="Book New Appointment" style="whiteSpace=wrap;html=1;verticalAlign=top;" parent="WIyWlLk6GJQsqaUBKTNV-1" vertex="1">
                    <mxGeometry x="1005.5" y="1024.06" width="100" height="46" as="geometry"/>
                </mxCell>
                <mxCell id="16" value="View Current Appointments" style="whiteSpace=wrap;html=1;verticalAlign=top;" parent="WIyWlLk6GJQsqaUBKTNV-1" vertex="1">
                    <mxGeometry x="1005.5" y="1220.06" width="100" height="46" as="geometry"/>
                </mxCell>
                <mxCell id="17" value="View Medical Prescription" style="whiteSpace=wrap;html=1;verticalAlign=top;" parent="WIyWlLk6GJQsqaUBKTNV-1" vertex="1">
                    <mxGeometry x="1005.5" y="1443" width="100" height="46" as="geometry"/>
                </mxCell>
                <mxCell id="18" value="" style="edgeStyle=orthogonalEdgeStyle;rounded=0;orthogonalLoop=1;jettySize=auto;html=1;endArrow=classic;endFill=1;exitX=1;exitY=0.5;exitDx=0;exitDy=0;entryX=0;entryY=0.5;entryDx=0;entryDy=0;" parent="WIyWlLk6GJQsqaUBKTNV-1" source="15" target="pnRQrC9CDRDMa9Q650ak-240" edge="1">
                    <mxGeometry relative="1" as="geometry">
                        <mxPoint x="1389.25" y="1057.06" as="sourcePoint"/>
                        <mxPoint x="1462.37" y="1057.06" as="targetPoint"/>
                    </mxGeometry>
                </mxCell>
                <mxCell id="22" value="Select Department" style="whiteSpace=wrap;html=1;verticalAlign=top;" parent="WIyWlLk6GJQsqaUBKTNV-1" vertex="1">
                    <mxGeometry x="1459.5" y="893.0600000000001" width="100" height="46" as="geometry"/>
                </mxCell>
                <mxCell id="23" value="Select GP" style="whiteSpace=wrap;html=1;verticalAlign=top;" parent="WIyWlLk6GJQsqaUBKTNV-1" vertex="1">
                    <mxGeometry x="1597.5" y="893.0600000000001" width="100" height="46" as="geometry"/>
                </mxCell>
                <mxCell id="24" value="Select Date" style="whiteSpace=wrap;html=1;verticalAlign=top;" parent="WIyWlLk6GJQsqaUBKTNV-1" vertex="1">
                    <mxGeometry x="1741.5" y="893.0600000000001" width="100" height="46" as="geometry"/>
                </mxCell>
                <mxCell id="25" value="Select Timeslot" style="whiteSpace=wrap;html=1;verticalAlign=top;" parent="WIyWlLk6GJQsqaUBKTNV-1" vertex="1">
                    <mxGeometry x="1882.5" y="893.0600000000001" width="100" height="46" as="geometry"/>
                </mxCell>
                <mxCell id="27" value="Send Request" style="whiteSpace=wrap;html=1;verticalAlign=top;" parent="WIyWlLk6GJQsqaUBKTNV-1" vertex="1">
                    <mxGeometry x="2027.5" y="893.0600000000001" width="100" height="46" as="geometry"/>
                </mxCell>
                <mxCell id="30" value="" style="endArrow=classic;html=1;entryX=0;entryY=0.5;entryDx=0;entryDy=0;exitX=1;exitY=0.5;exitDx=0;exitDy=0;" parent="WIyWlLk6GJQsqaUBKTNV-1" source="22" target="23" edge="1">
                    <mxGeometry width="50" height="50" relative="1" as="geometry">
                        <mxPoint x="982.5" y="984.0600000000001" as="sourcePoint"/>
                        <mxPoint x="1015.5" y="1057.0600000000004" as="targetPoint"/>
                    </mxGeometry>
                </mxCell>
                <mxCell id="31" value="" style="endArrow=classic;html=1;exitX=1;exitY=0.5;exitDx=0;exitDy=0;" parent="WIyWlLk6GJQsqaUBKTNV-1" source="23" target="24" edge="1">
                    <mxGeometry width="50" height="50" relative="1" as="geometry">
                        <mxPoint x="1569.5" y="926.0600000000005" as="sourcePoint"/>
                        <mxPoint x="1627.499999999999" y="926.0600000000005" as="targetPoint"/>
                    </mxGeometry>
                </mxCell>
                <mxCell id="32" value="" style="endArrow=classic;html=1;entryX=0;entryY=0.5;entryDx=0;entryDy=0;exitX=1;exitY=0.5;exitDx=0;exitDy=0;" parent="WIyWlLk6GJQsqaUBKTNV-1" source="24" target="25" edge="1">
                    <mxGeometry width="50" height="50" relative="1" as="geometry">
                        <mxPoint x="1579.5" y="936.0600000000005" as="sourcePoint"/>
                        <mxPoint x="1637.499999999999" y="936.0600000000005" as="targetPoint"/>
                    </mxGeometry>
                </mxCell>
                <mxCell id="33" value="" style="endArrow=classic;html=1;entryX=0;entryY=0.5;entryDx=0;entryDy=0;exitX=1;exitY=0.5;exitDx=0;exitDy=0;" parent="WIyWlLk6GJQsqaUBKTNV-1" source="25" target="27" edge="1">
                    <mxGeometry width="50" height="50" relative="1" as="geometry">
                        <mxPoint x="1589.5" y="946.0600000000005" as="sourcePoint"/>
                        <mxPoint x="1647.499999999999" y="946.0600000000005" as="targetPoint"/>
                    </mxGeometry>
                </mxCell>
                <mxCell id="35" value="" style="edgeStyle=orthogonalEdgeStyle;rounded=0;orthogonalLoop=1;jettySize=auto;html=1;endArrow=classic;endFill=1;exitX=0.5;exitY=0;exitDx=0;exitDy=0;entryX=0;entryY=0.5;entryDx=0;entryDy=0;" parent="WIyWlLk6GJQsqaUBKTNV-1" source="pnRQrC9CDRDMa9Q650ak-240" target="22" edge="1">
                    <mxGeometry relative="1" as="geometry">
                        <mxPoint x="1115.5" y="1253.06" as="sourcePoint"/>
                        <mxPoint x="1137.5588235294117" y="1417.06" as="targetPoint"/>
                    </mxGeometry>
                </mxCell>
                <mxCell id="36" value="" style="edgeStyle=orthogonalEdgeStyle;rounded=0;orthogonalLoop=1;jettySize=auto;html=1;endArrow=classic;endFill=1;exitX=0.25;exitY=0;exitDx=0;exitDy=0;entryX=0.5;entryY=0;entryDx=0;entryDy=0;" parent="WIyWlLk6GJQsqaUBKTNV-1" source="23" target="22" edge="1">
                    <mxGeometry relative="1" as="geometry">
                        <mxPoint x="1299.25" y="1017.0599999999995" as="sourcePoint"/>
                        <mxPoint x="1469.5" y="926.0600000000005" as="targetPoint"/>
                    </mxGeometry>
                </mxCell>
                <mxCell id="37" value="" style="edgeStyle=orthogonalEdgeStyle;rounded=0;orthogonalLoop=1;jettySize=auto;html=1;endArrow=classic;endFill=1;exitX=0.25;exitY=0;exitDx=0;exitDy=0;entryX=0.75;entryY=0;entryDx=0;entryDy=0;" parent="WIyWlLk6GJQsqaUBKTNV-1" source="24" target="23" edge="1">
                    <mxGeometry relative="1" as="geometry">
                        <mxPoint x="1309.25" y="1027.0599999999995" as="sourcePoint"/>
                        <mxPoint x="1479.5" y="936.0600000000005" as="targetPoint"/>
                    </mxGeometry>
                </mxCell>
                <mxCell id="38" value="" style="edgeStyle=orthogonalEdgeStyle;rounded=0;orthogonalLoop=1;jettySize=auto;html=1;endArrow=classic;endFill=1;exitX=0.25;exitY=0;exitDx=0;exitDy=0;entryX=0.75;entryY=0;entryDx=0;entryDy=0;" parent="WIyWlLk6GJQsqaUBKTNV-1" source="25" target="24" edge="1">
                    <mxGeometry relative="1" as="geometry">
                        <mxPoint x="1776.5" y="903.0600000000001" as="sourcePoint"/>
                        <mxPoint x="1682.500000000001" y="903.0600000000001" as="targetPoint"/>
                    </mxGeometry>
                </mxCell>
                <mxCell id="39" value="" style="edgeStyle=orthogonalEdgeStyle;rounded=0;orthogonalLoop=1;jettySize=auto;html=1;endArrow=classic;endFill=1;exitX=0.25;exitY=0;exitDx=0;exitDy=0;entryX=0.75;entryY=0;entryDx=0;entryDy=0;" parent="WIyWlLk6GJQsqaUBKTNV-1" source="27" target="25" edge="1">
                    <mxGeometry relative="1" as="geometry">
                        <mxPoint x="1917.499999999999" y="903.0600000000001" as="sourcePoint"/>
                        <mxPoint x="1826.5" y="903.0600000000001" as="targetPoint"/>
                    </mxGeometry>
                </mxCell>
                <mxCell id="41" value="Return to options" style="whiteSpace=wrap;html=1;verticalAlign=top;" parent="WIyWlLk6GJQsqaUBKTNV-1" vertex="1">
                    <mxGeometry x="2165" y="893.0600000000001" width="100" height="46" as="geometry"/>
                </mxCell>
                <mxCell id="43" value="" style="endArrow=classic;html=1;entryX=0;entryY=0.5;entryDx=0;entryDy=0;exitX=1;exitY=0.5;exitDx=0;exitDy=0;" parent="WIyWlLk6GJQsqaUBKTNV-1" source="27" target="41" edge="1">
                    <mxGeometry width="50" height="50" relative="1" as="geometry">
                        <mxPoint x="1992.499999999999" y="926.0600000000005" as="sourcePoint"/>
                        <mxPoint x="2037.499999999999" y="926.0600000000005" as="targetPoint"/>
                    </mxGeometry>
                </mxCell>
                <mxCell id="45" value="Select Date" style="whiteSpace=wrap;html=1;verticalAlign=top;" parent="WIyWlLk6GJQsqaUBKTNV-1" vertex="1">
                    <mxGeometry x="1787.5" y="1023.06" width="100" height="46" as="geometry"/>
                </mxCell>
                <mxCell id="46" value="Select Timeslot" style="whiteSpace=wrap;html=1;verticalAlign=top;" parent="WIyWlLk6GJQsqaUBKTNV-1" vertex="1">
                    <mxGeometry x="1928.5" y="1023.06" width="100" height="46" as="geometry"/>
                </mxCell>
                <mxCell id="47" value="Send Request" style="whiteSpace=wrap;html=1;verticalAlign=top;" parent="WIyWlLk6GJQsqaUBKTNV-1" vertex="1">
                    <mxGeometry x="2073.5" y="1023.06" width="100" height="46" as="geometry"/>
                </mxCell>
                <mxCell id="48" value="" style="endArrow=classic;html=1;entryX=0;entryY=0.5;entryDx=0;entryDy=0;exitX=1;exitY=0.5;exitDx=0;exitDy=0;" parent="WIyWlLk6GJQsqaUBKTNV-1" source="45" target="46" edge="1">
                    <mxGeometry width="50" height="50" relative="1" as="geometry">
                        <mxPoint x="1625.5" y="1066.0600000000004" as="sourcePoint"/>
                        <mxPoint x="1683.499999999999" y="1066.0600000000004" as="targetPoint"/>
                    </mxGeometry>
                </mxCell>
                <mxCell id="49" value="" style="endArrow=classic;html=1;entryX=0;entryY=0.5;entryDx=0;entryDy=0;exitX=1;exitY=0.5;exitDx=0;exitDy=0;" parent="WIyWlLk6GJQsqaUBKTNV-1" source="46" target="47" edge="1">
                    <mxGeometry width="50" height="50" relative="1" as="geometry">
                        <mxPoint x="1635.5" y="1076.0600000000004" as="sourcePoint"/>
                        <mxPoint x="1693.499999999999" y="1076.0600000000004" as="targetPoint"/>
                    </mxGeometry>
                </mxCell>
                <mxCell id="50" value="" style="edgeStyle=orthogonalEdgeStyle;rounded=0;orthogonalLoop=1;jettySize=auto;html=1;endArrow=classic;endFill=1;exitX=0.25;exitY=0;exitDx=0;exitDy=0;entryX=0.75;entryY=0;entryDx=0;entryDy=0;" parent="WIyWlLk6GJQsqaUBKTNV-1" source="46" target="45" edge="1">
                    <mxGeometry relative="1" as="geometry">
                        <mxPoint x="1822.5" y="1031.06" as="sourcePoint"/>
                        <mxPoint x="1728.500000000001" y="1031.06" as="targetPoint"/>
                    </mxGeometry>
                </mxCell>
                <mxCell id="51" value="" style="edgeStyle=orthogonalEdgeStyle;rounded=0;orthogonalLoop=1;jettySize=auto;html=1;endArrow=classic;endFill=1;exitX=0.25;exitY=0;exitDx=0;exitDy=0;entryX=0.75;entryY=0;entryDx=0;entryDy=0;" parent="WIyWlLk6GJQsqaUBKTNV-1" source="47" target="46" edge="1">
                    <mxGeometry relative="1" as="geometry">
                        <mxPoint x="1963.499999999999" y="1031.06" as="sourcePoint"/>
                        <mxPoint x="1872.5" y="1031.06" as="targetPoint"/>
                    </mxGeometry>
                </mxCell>
                <mxCell id="52" value="Return to options" style="whiteSpace=wrap;html=1;verticalAlign=top;" parent="WIyWlLk6GJQsqaUBKTNV-1" vertex="1">
                    <mxGeometry x="2211" y="1023.06" width="100" height="46" as="geometry"/>
                </mxCell>
                <mxCell id="53" value="" style="endArrow=classic;html=1;entryX=0;entryY=0.5;entryDx=0;entryDy=0;exitX=1;exitY=0.5;exitDx=0;exitDy=0;" parent="WIyWlLk6GJQsqaUBKTNV-1" source="47" target="52" edge="1">
                    <mxGeometry width="50" height="50" relative="1" as="geometry">
                        <mxPoint x="2038.499999999999" y="1056.0600000000004" as="sourcePoint"/>
                        <mxPoint x="2083.499999999999" y="1056.0600000000004" as="targetPoint"/>
                    </mxGeometry>
                </mxCell>
                <mxCell id="55" value="Input Referal Number" style="whiteSpace=wrap;html=1;verticalAlign=top;" parent="WIyWlLk6GJQsqaUBKTNV-1" vertex="1">
                    <mxGeometry x="1454.5" y="1024.06" width="100" height="46" as="geometry"/>
                </mxCell>
                <mxCell id="56" value="" style="endArrow=classic;html=1;entryX=0;entryY=0.5;entryDx=0;entryDy=0;exitX=1;exitY=0.5;exitDx=0;exitDy=0;" parent="WIyWlLk6GJQsqaUBKTNV-1" source="55" target="58" edge="1">
                    <mxGeometry width="50" height="50" relative="1" as="geometry">
                        <mxPoint x="1707.500000000001" y="1054.06" as="sourcePoint"/>
                        <mxPoint x="1748.5" y="1054.06" as="targetPoint"/>
                    </mxGeometry>
                </mxCell>
                <mxCell id="57" value="" style="edgeStyle=orthogonalEdgeStyle;rounded=0;orthogonalLoop=1;jettySize=auto;html=1;endArrow=classic;endFill=1;exitX=0.25;exitY=0;exitDx=0;exitDy=0;entryX=0.75;entryY=0;entryDx=0;entryDy=0;" parent="WIyWlLk6GJQsqaUBKTNV-1" source="45" target="55" edge="1">
                    <mxGeometry relative="1" as="geometry">
                        <mxPoint x="1632.500000000001" y="903.0600000000001" as="sourcePoint"/>
                        <mxPoint x="1519.5" y="903.0600000000001" as="targetPoint"/>
                    </mxGeometry>
                </mxCell>
                <mxCell id="58" value="Valid number?" style="rhombus;whiteSpace=wrap;html=1;strokeWidth=2;" parent="WIyWlLk6GJQsqaUBKTNV-1" vertex="1">
                    <mxGeometry x="1610.5" y="1017.31" width="121.38" height="59.5" as="geometry"/>
                </mxCell>
                <mxCell id="59" value="" style="edgeStyle=orthogonalEdgeStyle;rounded=0;orthogonalLoop=1;jettySize=auto;html=1;endArrow=classic;endFill=1;exitX=0.5;exitY=1;exitDx=0;exitDy=0;entryX=0.5;entryY=1;entryDx=0;entryDy=0;" parent="WIyWlLk6GJQsqaUBKTNV-1" source="pnRQrC9CDRDMa9Q650ak-240" target="15" edge="1">
                    <mxGeometry relative="1" as="geometry">
                        <mxPoint x="1299.25" y="1017.0599999999995" as="sourcePoint"/>
                        <mxPoint x="1469.5" y="926.0600000000005" as="targetPoint"/>
                    </mxGeometry>
                </mxCell>
                <mxCell id="60" value="Back" style="text;html=1;strokeColor=none;fillColor=none;align=center;verticalAlign=middle;whiteSpace=wrap;rounded=0;" parent="WIyWlLk6GJQsqaUBKTNV-1" vertex="1">
                    <mxGeometry x="1199.25" y="1087.06" width="40" height="20" as="geometry"/>
                </mxCell>
                <mxCell id="61" value="" style="endArrow=classic;html=1;entryX=0;entryY=0.5;entryDx=0;entryDy=0;exitX=1;exitY=0.5;exitDx=0;exitDy=0;" parent="WIyWlLk6GJQsqaUBKTNV-1" source="58" target="45" edge="1">
                    <mxGeometry width="50" height="50" relative="1" as="geometry">
                        <mxPoint x="1564.5" y="1057.0600000000004" as="sourcePoint"/>
                        <mxPoint x="1594.5" y="1057.0599999999995" as="targetPoint"/>
                    </mxGeometry>
                </mxCell>
                <mxCell id="64" value="" style="edgeStyle=orthogonalEdgeStyle;rounded=0;orthogonalLoop=1;jettySize=auto;html=1;endArrow=classic;endFill=1;exitX=0.5;exitY=1;exitDx=0;exitDy=0;entryX=0.5;entryY=1;entryDx=0;entryDy=0;" parent="WIyWlLk6GJQsqaUBKTNV-1" source="58" target="55" edge="1">
                    <mxGeometry relative="1" as="geometry">
                        <mxPoint x="1632.500000000001" y="903.0600000000001" as="sourcePoint"/>
                        <mxPoint x="1519.5" y="903.0600000000001" as="targetPoint"/>
                    </mxGeometry>
                </mxCell>
                <mxCell id="65" value="Yes" style="text;html=1;strokeColor=none;fillColor=none;align=center;verticalAlign=middle;whiteSpace=wrap;rounded=0;" parent="WIyWlLk6GJQsqaUBKTNV-1" vertex="1">
                    <mxGeometry x="1731.8799999999999" y="1023.06" width="40" height="20" as="geometry"/>
                </mxCell>
                <mxCell id="66" value="No" style="text;html=1;strokeColor=none;fillColor=none;align=center;verticalAlign=middle;whiteSpace=wrap;rounded=0;" parent="WIyWlLk6GJQsqaUBKTNV-1" vertex="1">
                    <mxGeometry x="1605.62" y="1074.06" width="40" height="20" as="geometry"/>
                </mxCell>
                <mxCell id="67" value="Reschedule or Cancel" style="rhombus;whiteSpace=wrap;html=1;strokeWidth=2;" parent="WIyWlLk6GJQsqaUBKTNV-1" vertex="1">
                    <mxGeometry x="1366.5" y="1203.06" width="180" height="80" as="geometry"/>
                </mxCell>
                <mxCell id="68" value="" style="edgeStyle=orthogonalEdgeStyle;rounded=0;orthogonalLoop=1;jettySize=auto;html=1;endArrow=classic;endFill=1;exitX=1;exitY=0.5;exitDx=0;exitDy=0;entryX=0;entryY=0.5;entryDx=0;entryDy=0;" parent="WIyWlLk6GJQsqaUBKTNV-1" source="69" target="67" edge="1">
                    <mxGeometry relative="1" as="geometry">
                        <mxPoint x="1105.5" y="1243.06" as="sourcePoint"/>
                        <mxPoint x="1462.37" y="1253.06" as="targetPoint"/>
                    </mxGeometry>
                </mxCell>
                <mxCell id="69" value="Select an appointment" style="whiteSpace=wrap;html=1;verticalAlign=top;" parent="WIyWlLk6GJQsqaUBKTNV-1" vertex="1">
                    <mxGeometry x="1185.5" y="1220.06" width="100" height="46" as="geometry"/>
                </mxCell>
                <mxCell id="70" value="" style="edgeStyle=orthogonalEdgeStyle;rounded=0;orthogonalLoop=1;jettySize=auto;html=1;endArrow=classic;endFill=1;exitX=1;exitY=0.5;exitDx=0;exitDy=0;entryX=0;entryY=0.5;entryDx=0;entryDy=0;" parent="WIyWlLk6GJQsqaUBKTNV-1" target="69" edge="1">
                    <mxGeometry relative="1" as="geometry">
                        <mxPoint x="1105.5" y="1243.06" as="sourcePoint"/>
                        <mxPoint x="1366.5" y="1243.06" as="targetPoint"/>
                    </mxGeometry>
                </mxCell>
                <mxCell id="72" value="" style="edgeStyle=orthogonalEdgeStyle;rounded=0;orthogonalLoop=1;jettySize=auto;html=1;endArrow=classic;endFill=1;exitX=0.5;exitY=0;exitDx=0;exitDy=0;entryX=0.5;entryY=0;entryDx=0;entryDy=0;" parent="WIyWlLk6GJQsqaUBKTNV-1" source="67" target="69" edge="1">
                    <mxGeometry relative="1" as="geometry">
                        <mxPoint x="1299.25" y="1017.06" as="sourcePoint"/>
                        <mxPoint x="1469.5" y="926.0600000000001" as="targetPoint"/>
                    </mxGeometry>
                </mxCell>
                <mxCell id="73" value="Back" style="text;html=1;strokeColor=none;fillColor=none;align=center;verticalAlign=middle;whiteSpace=wrap;rounded=0;" parent="WIyWlLk6GJQsqaUBKTNV-1" vertex="1">
                    <mxGeometry x="1402.5" y="1159.06" width="40" height="20" as="geometry"/>
                </mxCell>
                <mxCell id="74" value="" style="edgeStyle=orthogonalEdgeStyle;rounded=0;orthogonalLoop=1;jettySize=auto;html=1;endArrow=classic;endFill=1;exitX=0.5;exitY=1;exitDx=0;exitDy=0;entryX=0.5;entryY=0;entryDx=0;entryDy=0;" parent="WIyWlLk6GJQsqaUBKTNV-1" source="67" edge="1">
                    <mxGeometry relative="1" as="geometry">
                        <mxPoint x="1295.5" y="1253.0600000000004" as="sourcePoint"/>
                        <mxPoint x="1456.5" y="1336.06" as="targetPoint"/>
                    </mxGeometry>
                </mxCell>
                <mxCell id="75" value="" style="edgeStyle=orthogonalEdgeStyle;rounded=0;orthogonalLoop=1;jettySize=auto;html=1;endArrow=classic;endFill=1;exitX=1;exitY=0.5;exitDx=0;exitDy=0;entryX=0;entryY=0.5;entryDx=0;entryDy=0;" parent="WIyWlLk6GJQsqaUBKTNV-1" source="67" edge="1">
                    <mxGeometry relative="1" as="geometry">
                        <mxPoint x="1466.5" y="1293.06" as="sourcePoint"/>
                        <mxPoint x="1612.5" y="1243.06" as="targetPoint"/>
                    </mxGeometry>
                </mxCell>
                <mxCell id="76" value="" style="edgeStyle=orthogonalEdgeStyle;rounded=0;orthogonalLoop=1;jettySize=auto;html=1;endArrow=classic;endFill=1;entryX=0;entryY=0.5;entryDx=0;entryDy=0;exitX=1;exitY=0.3333333333333333;exitDx=0;exitDy=0;exitPerimeter=0;" parent="WIyWlLk6GJQsqaUBKTNV-1" source="pnRQrC9CDRDMa9Q650ak-6" target="15" edge="1">
                    <mxGeometry relative="1" as="geometry">
                        <mxPoint x="972.5" y="966.0600000000001" as="sourcePoint"/>
                        <mxPoint x="1245.5" y="1230.0600000000004" as="targetPoint"/>
                        <Array as="points">
                            <mxPoint x="939" y="1244"/>
                            <mxPoint x="939" y="1047"/>
                        </Array>
                    </mxGeometry>
                </mxCell>
                <mxCell id="77" value="Reschedule appointments" style="whiteSpace=wrap;html=1;verticalAlign=top;" parent="WIyWlLk6GJQsqaUBKTNV-1" vertex="1">
                    <mxGeometry x="1612.5" y="1220.06" width="100" height="46" as="geometry"/>
                </mxCell>
                <mxCell id="78" value="Cancel existing appointments" style="whiteSpace=wrap;html=1;verticalAlign=top;" parent="WIyWlLk6GJQsqaUBKTNV-1" vertex="1">
                    <mxGeometry x="1406.5" y="1337.06" width="100" height="46" as="geometry"/>
                </mxCell>
                <mxCell id="80" value="" style="edgeStyle=orthogonalEdgeStyle;rounded=0;orthogonalLoop=1;jettySize=auto;html=1;endArrow=classic;endFill=1;exitX=1;exitY=0.5;exitDx=0;exitDy=0;" parent="WIyWlLk6GJQsqaUBKTNV-1" source="78" edge="1">
                    <mxGeometry relative="1" as="geometry">
                        <mxPoint x="1556.5" y="1253.06" as="sourcePoint"/>
                        <mxPoint x="1616.5" y="1360.06" as="targetPoint"/>
                    </mxGeometry>
                </mxCell>
                <mxCell id="81" value="Return to Options" style="whiteSpace=wrap;html=1;verticalAlign=top;" parent="WIyWlLk6GJQsqaUBKTNV-1" vertex="1">
                    <mxGeometry x="1835" y="1338.56" width="100" height="46" as="geometry"/>
                </mxCell>
                <mxCell id="82" value="" style="edgeStyle=orthogonalEdgeStyle;rounded=0;orthogonalLoop=1;jettySize=auto;html=1;endArrow=classic;endFill=1;exitX=1;exitY=0.5;exitDx=0;exitDy=0;entryX=0;entryY=0.5;entryDx=0;entryDy=0;" parent="WIyWlLk6GJQsqaUBKTNV-1" source="83" target="81" edge="1">
                    <mxGeometry relative="1" as="geometry">
                        <mxPoint x="1747.5" y="1357.5600000000004" as="sourcePoint"/>
                        <mxPoint x="1656.5" y="1367.5600000000004" as="targetPoint"/>
                    </mxGeometry>
                </mxCell>
                <mxCell id="83" value="Confirm Choice" style="rhombus;whiteSpace=wrap;html=1;strokeWidth=2;" parent="WIyWlLk6GJQsqaUBKTNV-1" vertex="1">
                    <mxGeometry x="1619.25" y="1332.06" width="132.75" height="59" as="geometry"/>
                </mxCell>
                <mxCell id="85" value="Yes" style="text;html=1;strokeColor=none;fillColor=none;align=center;verticalAlign=middle;whiteSpace=wrap;rounded=0;" parent="WIyWlLk6GJQsqaUBKTNV-1" vertex="1">
                    <mxGeometry x="1761.5" y="1338.56" width="40" height="20" as="geometry"/>
                </mxCell>
                <mxCell id="86" value="No" style="text;html=1;strokeColor=none;fillColor=none;align=center;verticalAlign=middle;whiteSpace=wrap;rounded=0;" parent="WIyWlLk6GJQsqaUBKTNV-1" vertex="1">
                    <mxGeometry x="1615.5" y="1390.06" width="40" height="20" as="geometry"/>
                </mxCell>
                <mxCell id="87" value="" style="edgeStyle=orthogonalEdgeStyle;rounded=0;orthogonalLoop=1;jettySize=auto;html=1;endArrow=classic;endFill=1;exitX=0.5;exitY=1;exitDx=0;exitDy=0;entryX=0.5;entryY=1;entryDx=0;entryDy=0;" parent="WIyWlLk6GJQsqaUBKTNV-1" source="83" target="16" edge="1">
                    <mxGeometry relative="1" as="geometry">
                        <mxPoint x="1681.1900000000005" y="1086.81" as="sourcePoint"/>
                        <mxPoint x="1514.5" y="1080.0599999999995" as="targetPoint"/>
                    </mxGeometry>
                </mxCell>
                <mxCell id="92" value="Select Date" style="whiteSpace=wrap;html=1;verticalAlign=top;" parent="WIyWlLk6GJQsqaUBKTNV-1" vertex="1">
                    <mxGeometry x="1761.5" y="1220.06" width="100" height="46" as="geometry"/>
                </mxCell>
                <mxCell id="93" value="Select Timeslot" style="whiteSpace=wrap;html=1;verticalAlign=top;" parent="WIyWlLk6GJQsqaUBKTNV-1" vertex="1">
                    <mxGeometry x="1902.5" y="1220.06" width="100" height="46" as="geometry"/>
                </mxCell>
                <mxCell id="94" value="Send Request" style="whiteSpace=wrap;html=1;verticalAlign=top;" parent="WIyWlLk6GJQsqaUBKTNV-1" vertex="1">
                    <mxGeometry x="2047.5" y="1220.06" width="100" height="46" as="geometry"/>
                </mxCell>
                <mxCell id="95" value="" style="endArrow=classic;html=1;entryX=0;entryY=0.5;entryDx=0;entryDy=0;exitX=1;exitY=0.5;exitDx=0;exitDy=0;" parent="WIyWlLk6GJQsqaUBKTNV-1" source="92" target="93" edge="1">
                    <mxGeometry width="50" height="50" relative="1" as="geometry">
                        <mxPoint x="1599.5" y="1263.0600000000004" as="sourcePoint"/>
                        <mxPoint x="1657.499999999999" y="1263.0600000000004" as="targetPoint"/>
                    </mxGeometry>
                </mxCell>
                <mxCell id="96" value="" style="endArrow=classic;html=1;entryX=0;entryY=0.5;entryDx=0;entryDy=0;exitX=1;exitY=0.5;exitDx=0;exitDy=0;" parent="WIyWlLk6GJQsqaUBKTNV-1" source="93" target="94" edge="1">
                    <mxGeometry width="50" height="50" relative="1" as="geometry">
                        <mxPoint x="1609.5" y="1273.0600000000004" as="sourcePoint"/>
                        <mxPoint x="1667.499999999999" y="1273.0600000000004" as="targetPoint"/>
                    </mxGeometry>
                </mxCell>
                <mxCell id="97" value="" style="edgeStyle=orthogonalEdgeStyle;rounded=0;orthogonalLoop=1;jettySize=auto;html=1;endArrow=classic;endFill=1;exitX=0.25;exitY=0;exitDx=0;exitDy=0;entryX=0.75;entryY=0;entryDx=0;entryDy=0;" parent="WIyWlLk6GJQsqaUBKTNV-1" source="93" target="92" edge="1">
                    <mxGeometry relative="1" as="geometry">
                        <mxPoint x="1796.5" y="1228.06" as="sourcePoint"/>
                        <mxPoint x="1702.500000000001" y="1228.06" as="targetPoint"/>
                    </mxGeometry>
                </mxCell>
                <mxCell id="98" value="" style="edgeStyle=orthogonalEdgeStyle;rounded=0;orthogonalLoop=1;jettySize=auto;html=1;endArrow=classic;endFill=1;exitX=0.25;exitY=0;exitDx=0;exitDy=0;entryX=0.75;entryY=0;entryDx=0;entryDy=0;" parent="WIyWlLk6GJQsqaUBKTNV-1" source="94" target="93" edge="1">
                    <mxGeometry relative="1" as="geometry">
                        <mxPoint x="1937.499999999999" y="1228.06" as="sourcePoint"/>
                        <mxPoint x="1846.5" y="1228.06" as="targetPoint"/>
                    </mxGeometry>
                </mxCell>
                <mxCell id="99" value="Return to options" style="whiteSpace=wrap;html=1;verticalAlign=top;" parent="WIyWlLk6GJQsqaUBKTNV-1" vertex="1">
                    <mxGeometry x="2185" y="1220.06" width="100" height="46" as="geometry"/>
                </mxCell>
                <mxCell id="100" value="" style="endArrow=classic;html=1;entryX=0;entryY=0.5;entryDx=0;entryDy=0;exitX=1;exitY=0.5;exitDx=0;exitDy=0;" parent="WIyWlLk6GJQsqaUBKTNV-1" source="94" target="99" edge="1">
                    <mxGeometry width="50" height="50" relative="1" as="geometry">
                        <mxPoint x="2012.499999999999" y="1253.0600000000004" as="sourcePoint"/>
                        <mxPoint x="2057.499999999999" y="1253.0600000000004" as="targetPoint"/>
                    </mxGeometry>
                </mxCell>
                <mxCell id="101" value="" style="endArrow=classic;html=1;exitX=1;exitY=0.5;exitDx=0;exitDy=0;" parent="WIyWlLk6GJQsqaUBKTNV-1" source="77" edge="1">
                    <mxGeometry width="50" height="50" relative="1" as="geometry">
                        <mxPoint x="1871.5" y="1253.06" as="sourcePoint"/>
                        <mxPoint x="1760.5" y="1243.06" as="targetPoint"/>
                    </mxGeometry>
                </mxCell>
                <mxCell id="103" value="" style="edgeStyle=orthogonalEdgeStyle;rounded=0;orthogonalLoop=1;jettySize=auto;html=1;endArrow=classic;endFill=1;entryX=0;entryY=0.5;entryDx=0;entryDy=0;exitX=1;exitY=0.3333333333333333;exitDx=0;exitDy=0;exitPerimeter=0;" parent="WIyWlLk6GJQsqaUBKTNV-1" source="pnRQrC9CDRDMa9Q650ak-6" target="17" edge="1">
                    <mxGeometry relative="1" as="geometry">
                        <mxPoint x="957.5" y="965.0600000000001" as="sourcePoint"/>
                        <mxPoint x="1015.5" y="1253.06" as="targetPoint"/>
                        <Array as="points">
                            <mxPoint x="942" y="1244"/>
                            <mxPoint x="942" y="1466"/>
                        </Array>
                    </mxGeometry>
                </mxCell>
                <mxCell id="105" value="Select an appointment" style="whiteSpace=wrap;html=1;verticalAlign=top;" parent="WIyWlLk6GJQsqaUBKTNV-1" vertex="1">
                    <mxGeometry x="1185.5" y="1443" width="100" height="46" as="geometry"/>
                </mxCell>
                <mxCell id="106" value="" style="edgeStyle=orthogonalEdgeStyle;rounded=0;orthogonalLoop=1;jettySize=auto;html=1;endArrow=classic;endFill=1;exitX=1;exitY=0.5;exitDx=0;exitDy=0;entryX=0;entryY=0.5;entryDx=0;entryDy=0;" parent="WIyWlLk6GJQsqaUBKTNV-1" source="17" target="105" edge="1">
                    <mxGeometry relative="1" as="geometry">
                        <mxPoint x="1115.5" y="1222.0000000000005" as="sourcePoint"/>
                        <mxPoint x="1195.5" y="1221.9999999999995" as="targetPoint"/>
                    </mxGeometry>
                </mxCell>
                <mxCell id="107" value="" style="edgeStyle=orthogonalEdgeStyle;rounded=0;orthogonalLoop=1;jettySize=auto;html=1;endArrow=classic;endFill=1;exitX=0.5;exitY=1;exitDx=0;exitDy=0;entryX=0.5;entryY=1;entryDx=0;entryDy=0;" parent="WIyWlLk6GJQsqaUBKTNV-1" source="105" target="17" edge="1">
                    <mxGeometry relative="1" as="geometry">
                        <mxPoint x="1299.25" y="1066" as="sourcePoint"/>
                        <mxPoint x="1065.5" y="1048.9999999999995" as="targetPoint"/>
                    </mxGeometry>
                </mxCell>
                <mxCell id="108" value="" style="edgeStyle=orthogonalEdgeStyle;rounded=0;orthogonalLoop=1;jettySize=auto;html=1;endArrow=classic;endFill=1;exitX=1;exitY=0.3333333333333333;exitDx=0;exitDy=0;entryX=0;entryY=0.5;entryDx=0;entryDy=0;exitPerimeter=0;" parent="WIyWlLk6GJQsqaUBKTNV-1" source="pnRQrC9CDRDMa9Q650ak-6" target="16" edge="1">
                    <mxGeometry relative="1" as="geometry">
                        <mxPoint x="1115.499999999999" y="1057.06" as="sourcePoint"/>
                        <mxPoint x="1209.249999999999" y="1057.06" as="targetPoint"/>
                    </mxGeometry>
                </mxCell>
                <mxCell id="110" value="CONFIRM APPOINTMENTS" style="html=1;verticalAlign=bottom;endArrow=block;exitX=1;exitY=0.3333333333333333;exitDx=0;exitDy=0;exitPerimeter=0;" parent="WIyWlLk6GJQsqaUBKTNV-1" source="153" target="111" edge="1">
                    <mxGeometry width="80" relative="1" as="geometry">
                        <mxPoint x="852.8163265306121" y="2244" as="sourcePoint"/>
                        <mxPoint x="972" y="1974" as="targetPoint"/>
                    </mxGeometry>
                </mxCell>
                <mxCell id="111" value="SHOW REQUESTED APPT BOOKING LIST" style="rounded=1;whiteSpace=wrap;html=1;absoluteArcSize=1;arcSize=14;strokeWidth=2;" parent="WIyWlLk6GJQsqaUBKTNV-1" vertex="1">
                    <mxGeometry x="1162" y="1754" width="100" height="100" as="geometry"/>
                </mxCell>
                <mxCell id="112" value="REJECT" style="html=1;verticalAlign=bottom;endArrow=block;" parent="WIyWlLk6GJQsqaUBKTNV-1" source="111" target="115" edge="1">
                    <mxGeometry width="80" relative="1" as="geometry">
                        <mxPoint x="1383.0016216216218" y="2204" as="sourcePoint"/>
                        <mxPoint x="1463" y="1884" as="targetPoint"/>
                    </mxGeometry>
                </mxCell>
                <mxCell id="113" value="ACCEPT" style="html=1;verticalAlign=bottom;endArrow=block;" parent="WIyWlLk6GJQsqaUBKTNV-1" source="111" target="114" edge="1">
                    <mxGeometry width="80" relative="1" as="geometry">
                        <mxPoint x="1463.0016216216218" y="1864" as="sourcePoint"/>
                        <mxPoint x="1433" y="1724" as="targetPoint"/>
                    </mxGeometry>
                </mxCell>
                <mxCell id="114" value="SCHEDULE APPT IN CALENDARS, SEND EMAIL" style="rounded=1;whiteSpace=wrap;html=1;absoluteArcSize=1;arcSize=14;strokeWidth=2;" parent="WIyWlLk6GJQsqaUBKTNV-1" vertex="1">
                    <mxGeometry x="1383" y="1654" width="100" height="100" as="geometry"/>
                </mxCell>
                <mxCell id="115" value="EMAIL PATIENT TO BOOK AGAIN" style="rounded=1;whiteSpace=wrap;html=1;absoluteArcSize=1;arcSize=14;strokeWidth=2;" parent="WIyWlLk6GJQsqaUBKTNV-1" vertex="1">
                    <mxGeometry x="1383" y="1794" width="100" height="100" as="geometry"/>
                </mxCell>
                <mxCell id="116" value="MANAGE CALENDAR" style="html=1;verticalAlign=bottom;endArrow=block;exitX=1;exitY=0.3333333333333333;exitDx=0;exitDy=0;exitPerimeter=0;" parent="WIyWlLk6GJQsqaUBKTNV-1" source="153" target="117" edge="1">
                    <mxGeometry width="80" relative="1" as="geometry">
                        <mxPoint x="862" y="2263.230769230769" as="sourcePoint"/>
                        <mxPoint x="1072" y="2134" as="targetPoint"/>
                    </mxGeometry>
                </mxCell>
                <mxCell id="117" value="CALENDAR OPTIONS:" style="rounded=1;whiteSpace=wrap;html=1;absoluteArcSize=1;arcSize=14;strokeWidth=2;" parent="WIyWlLk6GJQsqaUBKTNV-1" vertex="1">
                    <mxGeometry x="1022" y="2084" width="100" height="100" as="geometry"/>
                </mxCell>
                <mxCell id="118" value="SCHEDULE WORKING HOURS / HOLIDAY" style="html=1;verticalAlign=bottom;endArrow=block;" parent="WIyWlLk6GJQsqaUBKTNV-1" source="117" target="125" edge="1">
                    <mxGeometry width="80" relative="1" as="geometry">
                        <mxPoint x="1222" y="2244.000769230769" as="sourcePoint"/>
                        <mxPoint x="1432" y="2164" as="targetPoint"/>
                    </mxGeometry>
                </mxCell>
                <mxCell id="119" value="VIEW CALENDAR" style="html=1;verticalAlign=bottom;endArrow=block;" parent="WIyWlLk6GJQsqaUBKTNV-1" source="117" target="120" edge="1">
                    <mxGeometry width="80" relative="1" as="geometry">
                        <mxPoint x="1252" y="2012.460769230769" as="sourcePoint"/>
                        <mxPoint x="1392" y="1974" as="targetPoint"/>
                    </mxGeometry>
                </mxCell>
                <mxCell id="120" value="CALENDAR" style="rounded=1;whiteSpace=wrap;html=1;absoluteArcSize=1;arcSize=14;strokeWidth=2;" parent="WIyWlLk6GJQsqaUBKTNV-1" vertex="1">
                    <mxGeometry x="1342" y="1924" width="100" height="100" as="geometry"/>
                </mxCell>
                <mxCell id="121" value="CHOOSE DATE" style="html=1;verticalAlign=bottom;endArrow=block;" parent="WIyWlLk6GJQsqaUBKTNV-1" source="120" target="122" edge="1">
                    <mxGeometry width="80" relative="1" as="geometry">
                        <mxPoint x="1532" y="1914" as="sourcePoint"/>
                        <mxPoint x="1612" y="1974" as="targetPoint"/>
                    </mxGeometry>
                </mxCell>
                <mxCell id="122" value="SHOW DAY" style="rounded=1;whiteSpace=wrap;html=1;absoluteArcSize=1;arcSize=14;strokeWidth=2;" parent="WIyWlLk6GJQsqaUBKTNV-1" vertex="1">
                    <mxGeometry x="1562" y="1924" width="100" height="100" as="geometry"/>
                </mxCell>
                <mxCell id="123" value="EDIT DAY / APPTS/ WORKING HOURS" style="html=1;verticalAlign=bottom;endArrow=block;" parent="WIyWlLk6GJQsqaUBKTNV-1" source="122" target="124" edge="1">
                    <mxGeometry width="80" relative="1" as="geometry">
                        <mxPoint x="1532" y="1934.0014285714287" as="sourcePoint"/>
                        <mxPoint x="1882" y="1976" as="targetPoint"/>
                    </mxGeometry>
                </mxCell>
                <mxCell id="124" value="SAVE NEW CALENDAR DETAILS" style="rounded=1;whiteSpace=wrap;html=1;absoluteArcSize=1;arcSize=14;strokeWidth=2;" parent="WIyWlLk6GJQsqaUBKTNV-1" vertex="1">
                    <mxGeometry x="1782" y="1774" width="100" height="100" as="geometry"/>
                </mxCell>
                <mxCell id="125" value="SAVE NEW DETAILS" style="rounded=1;whiteSpace=wrap;html=1;absoluteArcSize=1;arcSize=14;strokeWidth=2;" parent="WIyWlLk6GJQsqaUBKTNV-1" vertex="1">
                    <mxGeometry x="1402" y="2084" width="100" height="100" as="geometry"/>
                </mxCell>
                <mxCell id="126" value="VIEW APPTS" style="html=1;verticalAlign=bottom;endArrow=block;exitX=1;exitY=0.3333333333333333;exitDx=0;exitDy=0;exitPerimeter=0;" parent="WIyWlLk6GJQsqaUBKTNV-1" source="153" target="127" edge="1">
                    <mxGeometry width="80" relative="1" as="geometry">
                        <mxPoint x="862" y="2299.5555555555557" as="sourcePoint"/>
                        <mxPoint x="1042" y="2334" as="targetPoint"/>
                    </mxGeometry>
                </mxCell>
                <mxCell id="127" value="SHOW (DEFAULT TODAY'S) CONFIRMED APPT LIST + TIMES" style="rounded=1;whiteSpace=wrap;html=1;absoluteArcSize=1;arcSize=14;strokeWidth=2;fillColor=none;" parent="WIyWlLk6GJQsqaUBKTNV-1" vertex="1">
                    <mxGeometry x="1212" y="2294" width="100" height="100" as="geometry"/>
                </mxCell>
                <mxCell id="129" value="SELECT APPT" style="html=1;verticalAlign=bottom;endArrow=block;" parent="WIyWlLk6GJQsqaUBKTNV-1" source="127" target="130" edge="1">
                    <mxGeometry width="80" relative="1" as="geometry">
                        <mxPoint x="1322" y="2254" as="sourcePoint"/>
                        <mxPoint x="1482" y="2334" as="targetPoint"/>
                    </mxGeometry>
                </mxCell>
                <mxCell id="130" value="SHOW APPT + DETAILS" style="rounded=1;whiteSpace=wrap;html=1;absoluteArcSize=1;arcSize=14;strokeWidth=2;" parent="WIyWlLk6GJQsqaUBKTNV-1" vertex="1">
                    <mxGeometry x="1422" y="2334" width="100" height="100" as="geometry"/>
                </mxCell>
                <mxCell id="132" value="WRITE PRESCRIPTIONS" style="html=1;verticalAlign=bottom;endArrow=block;" parent="WIyWlLk6GJQsqaUBKTNV-1" source="130" target="133" edge="1">
                    <mxGeometry width="80" relative="1" as="geometry">
                        <mxPoint x="1317" y="2337.783783783784" as="sourcePoint"/>
                        <mxPoint x="1572" y="2314" as="targetPoint"/>
                    </mxGeometry>
                </mxCell>
                <mxCell id="133" value="SAVE PRESCRIPTIONS" style="rounded=1;whiteSpace=wrap;html=1;absoluteArcSize=1;arcSize=14;strokeWidth=2;" parent="WIyWlLk6GJQsqaUBKTNV-1" vertex="1">
                    <mxGeometry x="2102" y="2144" width="100" height="100" as="geometry"/>
                </mxCell>
                <mxCell id="150" value="VIEW OTHER DATE" style="html=1;verticalAlign=bottom;endArrow=block;" parent="WIyWlLk6GJQsqaUBKTNV-1" source="127" target="151" edge="1">
                    <mxGeometry width="80" relative="1" as="geometry">
                        <mxPoint x="1302" y="2223.5238095238096" as="sourcePoint"/>
                        <mxPoint x="1472" y="2204" as="targetPoint"/>
                    </mxGeometry>
                </mxCell>
                <mxCell id="151" value="SHOW APPTS FROM OTHER DAYS" style="rounded=1;whiteSpace=wrap;html=1;absoluteArcSize=1;arcSize=14;strokeWidth=2;fillColor=none;" parent="WIyWlLk6GJQsqaUBKTNV-1" vertex="1">
                    <mxGeometry x="1432" y="2204" width="100" height="100" as="geometry"/>
                </mxCell>
                <mxCell id="152" value="" style="html=1;verticalAlign=bottom;endArrow=block;entryX=0.5;entryY=0;entryDx=0;entryDy=0;exitX=0;exitY=0.25;exitDx=0;exitDy=0;" parent="WIyWlLk6GJQsqaUBKTNV-1" source="151" target="127" edge="1">
                    <mxGeometry width="80" relative="1" as="geometry">
                        <mxPoint x="1382" y="2254" as="sourcePoint"/>
                        <mxPoint x="1392" y="2194.9045454545458" as="targetPoint"/>
                    </mxGeometry>
                </mxCell>
                <mxCell id="153" value="GP" style="shape=umlActor;verticalLabelPosition=bottom;verticalAlign=top;html=1;outlineConnect=0;" parent="WIyWlLk6GJQsqaUBKTNV-1" vertex="1">
                    <mxGeometry x="624.25" y="2084" width="80" height="180" as="geometry"/>
                </mxCell>
                <mxCell id="215" value="" style="edgeStyle=orthogonalEdgeStyle;rounded=0;orthogonalLoop=1;jettySize=auto;html=1;endArrow=classic;endFill=1;exitX=0;exitY=0.5;exitDx=0;exitDy=0;" parent="WIyWlLk6GJQsqaUBKTNV-1" source="ha2oRqozHU_V52BWfn8i-36" edge="1">
                    <mxGeometry relative="1" as="geometry">
                        <mxPoint x="-482" y="1915" as="targetPoint"/>
                        <Array as="points">
                            <mxPoint x="-552" y="2313"/>
                            <mxPoint x="-552" y="1915"/>
                        </Array>
                        <mxPoint x="-1053" y="2118" as="sourcePoint"/>
                    </mxGeometry>
                </mxCell>
                <mxCell id="216" value="Yes" style="text;html=1;strokeColor=none;fillColor=none;align=center;verticalAlign=middle;whiteSpace=wrap;rounded=0;" parent="WIyWlLk6GJQsqaUBKTNV-1" vertex="1">
                    <mxGeometry x="-358" y="2168" width="40" height="20" as="geometry"/>
                </mxCell>
                <mxCell id="217" value="Admin" style="shape=umlActor;verticalLabelPosition=bottom;verticalAlign=top;html=1;outlineConnect=0;" parent="WIyWlLk6GJQsqaUBKTNV-1" vertex="1">
                    <mxGeometry x="519" y="2672" width="80" height="180" as="geometry"/>
                </mxCell>
                <mxCell id="218" value="(Passing userId)" style="text;html=1;strokeColor=none;fillColor=none;align=center;verticalAlign=middle;whiteSpace=wrap;rounded=0;" parent="WIyWlLk6GJQsqaUBKTNV-1" vertex="1">
                    <mxGeometry x="-338" y="2190" width="130" height="20" as="geometry"/>
                </mxCell>
                <mxCell id="219" value="" style="endArrow=classic;html=1;entryX=0;entryY=0.3333333333333333;entryDx=0;entryDy=0;entryPerimeter=0;exitX=1;exitY=0;exitDx=0;exitDy=0;" parent="WIyWlLk6GJQsqaUBKTNV-1" source="pnRQrC9CDRDMa9Q650ak-1" target="pnRQrC9CDRDMa9Q650ak-6" edge="1">
                    <mxGeometry width="50" height="50" relative="1" as="geometry">
                        <mxPoint x="-186" y="1718" as="sourcePoint"/>
                        <mxPoint x="-136" y="1668" as="targetPoint"/>
                    </mxGeometry>
                </mxCell>
                <mxCell id="220" value="" style="endArrow=classic;html=1;entryX=0;entryY=0.3333333333333333;entryDx=0;entryDy=0;entryPerimeter=0;exitX=1;exitY=0.5;exitDx=0;exitDy=0;" parent="WIyWlLk6GJQsqaUBKTNV-1" source="pnRQrC9CDRDMa9Q650ak-1" target="153" edge="1">
                    <mxGeometry width="50" height="50" relative="1" as="geometry">
                        <mxPoint x="161" y="2164" as="sourcePoint"/>
                        <mxPoint x="649" y="1254" as="targetPoint"/>
                    </mxGeometry>
                </mxCell>
                <mxCell id="221" value="" style="endArrow=classic;html=1;entryX=0;entryY=0.3333333333333333;entryDx=0;entryDy=0;entryPerimeter=0;exitX=1;exitY=1;exitDx=0;exitDy=0;" parent="WIyWlLk6GJQsqaUBKTNV-1" source="pnRQrC9CDRDMa9Q650ak-1" target="217" edge="1">
                    <mxGeometry width="50" height="50" relative="1" as="geometry">
                        <mxPoint x="161" y="2194" as="sourcePoint"/>
                        <mxPoint x="634.25" y="2154" as="targetPoint"/>
                    </mxGeometry>
                </mxCell>
                <mxCell id="409" value="SEARCH GPS" style="html=1;verticalAlign=bottom;endArrow=block;exitX=1;exitY=0.5;exitDx=0;exitDy=0;" parent="WIyWlLk6GJQsqaUBKTNV-1" source="428" target="414" edge="1">
                    <mxGeometry width="80" relative="1" as="geometry">
                        <mxPoint x="842.5" y="3353" as="sourcePoint"/>
                        <mxPoint x="1192.5" y="3473" as="targetPoint"/>
                    </mxGeometry>
                </mxCell>
                <mxCell id="411" value="EDIT DETAILS" style="html=1;verticalAlign=bottom;endArrow=block;" parent="WIyWlLk6GJQsqaUBKTNV-1" source="415" target="417" edge="1">
                    <mxGeometry x="0.016" y="9" width="80" relative="1" as="geometry">
                        <mxPoint x="1662.5" y="3705" as="sourcePoint"/>
                        <mxPoint x="1802.5" y="3623" as="targetPoint"/>
                        <mxPoint y="-1" as="offset"/>
                    </mxGeometry>
                </mxCell>
                <mxCell id="412" value="REGISTER NEW GP" style="html=1;verticalAlign=bottom;endArrow=block;entryX=0;entryY=0.5;entryDx=0;entryDy=0;exitX=1;exitY=0;exitDx=0;exitDy=0;" parent="WIyWlLk6GJQsqaUBKTNV-1" source="428" target="418" edge="1">
                    <mxGeometry width="80" relative="1" as="geometry">
                        <mxPoint x="882.5" y="3317" as="sourcePoint"/>
                        <mxPoint x="1312.5" y="3353" as="targetPoint"/>
                    </mxGeometry>
                </mxCell>
                <mxCell id="413" value="SELECT GP" style="html=1;verticalAlign=bottom;endArrow=block;" parent="WIyWlLk6GJQsqaUBKTNV-1" source="414" target="415" edge="1">
                    <mxGeometry width="80" relative="1" as="geometry">
                        <mxPoint x="1442.5" y="3595" as="sourcePoint"/>
                        <mxPoint x="1502.5" y="3523" as="targetPoint"/>
                    </mxGeometry>
                </mxCell>
                <mxCell id="414" value="view a list of all GPs" style="rounded=1;whiteSpace=wrap;html=1;absoluteArcSize=1;arcSize=14;strokeWidth=2;" parent="WIyWlLk6GJQsqaUBKTNV-1" vertex="1">
                    <mxGeometry x="1162.5" y="3413" width="100" height="100" as="geometry"/>
                </mxCell>
                <mxCell id="415" value="VIEW GP DETAILS" style="rounded=1;whiteSpace=wrap;html=1;absoluteArcSize=1;arcSize=14;strokeWidth=2;" parent="WIyWlLk6GJQsqaUBKTNV-1" vertex="1">
                    <mxGeometry x="1452.5" y="3473" width="100" height="100" as="geometry"/>
                </mxCell>
                <mxCell id="417" value="SAVE NEW DETAILS" style="rounded=1;whiteSpace=wrap;html=1;absoluteArcSize=1;arcSize=14;strokeWidth=2;" parent="WIyWlLk6GJQsqaUBKTNV-1" vertex="1">
                    <mxGeometry x="1802.5" y="3513" width="100" height="100" as="geometry"/>
                </mxCell>
                <mxCell id="418" value="FORM TO ENTER NEW GP DETAILS" style="html=1;strokeWidth=2;shape=manualInput;whiteSpace=wrap;rounded=1;size=26;arcSize=11;" parent="WIyWlLk6GJQsqaUBKTNV-1" vertex="1">
                    <mxGeometry x="1302.5" y="3173" width="140" height="90" as="geometry"/>
                </mxCell>
                <mxCell id="419" value="SEARCH PATIENTS" style="html=1;verticalAlign=bottom;endArrow=block;exitX=0.5;exitY=1;exitDx=0;exitDy=0;" parent="WIyWlLk6GJQsqaUBKTNV-1" source="428" target="420" edge="1">
                    <mxGeometry width="80" relative="1" as="geometry">
                        <mxPoint x="812.5" y="3403" as="sourcePoint"/>
                        <mxPoint x="982.5" y="3572.9953488372093" as="targetPoint"/>
                    </mxGeometry>
                </mxCell>
                <mxCell id="420" value="SEARCH PATIENTS (NAME, DOB, ETC)" style="rounded=1;whiteSpace=wrap;html=1;absoluteArcSize=1;arcSize=14;strokeWidth=2;" parent="WIyWlLk6GJQsqaUBKTNV-1" vertex="1">
                    <mxGeometry x="932.5" y="3522.9953488372093" width="100" height="100" as="geometry"/>
                </mxCell>
                <mxCell id="421" value="SELECT PATIENT" style="html=1;verticalAlign=bottom;endArrow=block;" parent="WIyWlLk6GJQsqaUBKTNV-1" source="420" target="422" edge="1">
                    <mxGeometry width="80" relative="1" as="geometry">
                        <mxPoint x="1152.5" y="3673.0045161290323" as="sourcePoint"/>
                        <mxPoint x="1242.5" y="3703" as="targetPoint"/>
                    </mxGeometry>
                </mxCell>
                <mxCell id="422" value="VIEW PATIENT DETAILS" style="rounded=1;whiteSpace=wrap;html=1;absoluteArcSize=1;arcSize=14;strokeWidth=2;" parent="WIyWlLk6GJQsqaUBKTNV-1" vertex="1">
                    <mxGeometry x="1202.5" y="3643" width="100" height="100" as="geometry"/>
                </mxCell>
                <mxCell id="423" value="DELETE GP" style="html=1;verticalAlign=bottom;endArrow=block;" parent="WIyWlLk6GJQsqaUBKTNV-1" source="415" target="424" edge="1">
                    <mxGeometry x="0.016" y="9" width="80" relative="1" as="geometry">
                        <mxPoint x="1562.5" y="3538.7142857142862" as="sourcePoint"/>
                        <mxPoint x="1712.5" y="3673" as="targetPoint"/>
                        <mxPoint y="-1" as="offset"/>
                    </mxGeometry>
                </mxCell>
                <mxCell id="424" value="REMOVE GP RECORD" style="rounded=1;whiteSpace=wrap;html=1;absoluteArcSize=1;arcSize=14;strokeWidth=2;" parent="WIyWlLk6GJQsqaUBKTNV-1" vertex="1">
                    <mxGeometry x="1662.5" y="3623" width="100" height="100" as="geometry"/>
                </mxCell>
                <mxCell id="425" value="UPDATE/DELETE PATIENT HEALTH RECORDS" style="html=1;verticalAlign=bottom;endArrow=block;exitX=1;exitY=1;exitDx=0;exitDy=0;" parent="WIyWlLk6GJQsqaUBKTNV-1" source="422" target="426" edge="1">
                    <mxGeometry width="80" relative="1" as="geometry">
                        <mxPoint x="1302.5" y="3712.9984323858744" as="sourcePoint"/>
                        <mxPoint x="1512.5" y="3820.78" as="targetPoint"/>
                    </mxGeometry>
                </mxCell>
                <mxCell id="426" value="SUCCESFUL UPDATE/DELETE" style="rounded=1;whiteSpace=wrap;html=1;absoluteArcSize=1;arcSize=14;strokeWidth=2;" parent="WIyWlLk6GJQsqaUBKTNV-1" vertex="1">
                    <mxGeometry x="1621" y="3871" width="100" height="100" as="geometry"/>
                </mxCell>
                <mxCell id="427" value="MANAGE USER ACCOUNTS" style="html=1;verticalAlign=bottom;endArrow=block;exitX=1;exitY=1;exitDx=0;exitDy=0;entryX=0.5;entryY=0;entryDx=0;entryDy=0;exitPerimeter=0;" parent="WIyWlLk6GJQsqaUBKTNV-1" source="217" target="428" edge="1">
                    <mxGeometry width="80" relative="1" as="geometry">
                        <mxPoint x="712.8000000000002" y="3016" as="sourcePoint"/>
                        <mxPoint x="532.5" y="3343" as="targetPoint"/>
                    </mxGeometry>
                </mxCell>
                <mxCell id="428" value="SEE LIST OF USER TYPES" style="rounded=1;whiteSpace=wrap;html=1;absoluteArcSize=1;arcSize=14;strokeWidth=2;" parent="WIyWlLk6GJQsqaUBKTNV-1" vertex="1">
                    <mxGeometry x="912.5" y="3323" width="100" height="100" as="geometry"/>
                </mxCell>
                <mxCell id="429" value="UPDATE/DELETE&amp;nbsp; PATIENT ACCOUNT" style="html=1;verticalAlign=bottom;endArrow=block;exitX=0.5;exitY=1;exitDx=0;exitDy=0;" parent="WIyWlLk6GJQsqaUBKTNV-1" source="422" target="430" edge="1">
                    <mxGeometry width="80" relative="1" as="geometry">
                        <mxPoint x="1142.5" y="3813" as="sourcePoint"/>
                        <mxPoint x="1352.5" y="3940.7800000000007" as="targetPoint"/>
                    </mxGeometry>
                </mxCell>
                <mxCell id="430" value="SUCCESFUL UPDATE/DELETE" style="rounded=1;whiteSpace=wrap;html=1;absoluteArcSize=1;arcSize=14;strokeWidth=2;" parent="WIyWlLk6GJQsqaUBKTNV-1" vertex="1">
                    <mxGeometry x="1192.5" y="3983" width="100" height="100" as="geometry"/>
                </mxCell>
                <mxCell id="435" value="DEACTIVATE GP" style="html=1;verticalAlign=bottom;endArrow=block;exitX=0.5;exitY=1;exitDx=0;exitDy=0;" parent="WIyWlLk6GJQsqaUBKTNV-1" source="415" target="436" edge="1">
                    <mxGeometry x="0.016" y="9" width="80" relative="1" as="geometry">
                        <mxPoint x="1402.5" y="3590.8542857142857" as="sourcePoint"/>
                        <mxPoint x="1562.5" y="3705.14" as="targetPoint"/>
                        <mxPoint y="-1" as="offset"/>
                    </mxGeometry>
                </mxCell>
                <mxCell id="436" value="TEMPORARILY GREY OUT GP FOR APPOINTMENTS" style="rounded=1;whiteSpace=wrap;html=1;absoluteArcSize=1;arcSize=14;strokeWidth=2;" parent="WIyWlLk6GJQsqaUBKTNV-1" vertex="1">
                    <mxGeometry x="1512.5" y="3655.14" width="100" height="100" as="geometry"/>
                </mxCell>
                <mxCell id="459" value="APPROVE NEW PATIENTS" style="html=1;verticalAlign=bottom;endArrow=block;exitX=0;exitY=0.25;exitDx=0;exitDy=0;" parent="WIyWlLk6GJQsqaUBKTNV-1" source="428" target="460" edge="1">
                    <mxGeometry width="80" relative="1" as="geometry">
                        <mxPoint x="802.4999999999995" y="3073" as="sourcePoint"/>
                        <mxPoint x="632.5" y="3230.78" as="targetPoint"/>
                    </mxGeometry>
                </mxCell>
                <mxCell id="460" value="VIEW LIST OF PENDING PATIENT REGISTRATIONS" style="rounded=1;whiteSpace=wrap;html=1;absoluteArcSize=1;arcSize=14;strokeWidth=2;" parent="WIyWlLk6GJQsqaUBKTNV-1" vertex="1">
                    <mxGeometry x="562.5" y="3313" width="100" height="80" as="geometry"/>
                </mxCell>
                <mxCell id="461" value="&lt;span style=&quot;font-family: &amp;#34;helvetica&amp;#34; ; font-size: 12px&quot;&gt;CONFIRM NEW PATIENT REGISTRATION&lt;/span&gt;" style="html=1;verticalAlign=bottom;endArrow=block;exitX=0;exitY=0.5;exitDx=0;exitDy=0;" parent="WIyWlLk6GJQsqaUBKTNV-1" source="460" target="462" edge="1">
                    <mxGeometry width="80" relative="1" as="geometry">
                        <mxPoint x="547.5" y="3355.14" as="sourcePoint"/>
                        <mxPoint x="407.5" y="3655.135348837209" as="targetPoint"/>
                    </mxGeometry>
                </mxCell>
                <mxCell id="462" value="NOTIFICATION OF &lt;br&gt;SUCCESSUL CONFIRMATION&amp;nbsp;" style="rounded=1;whiteSpace=wrap;html=1;absoluteArcSize=1;arcSize=14;strokeWidth=2;" parent="WIyWlLk6GJQsqaUBKTNV-1" vertex="1">
                    <mxGeometry x="322.5" y="3532.9953488372093" width="100" height="100" as="geometry"/>
                </mxCell>
                <mxCell id="222" value="additonal feature" style="" parent="WIyWlLk6GJQsqaUBKTNV-0"/>
                <mxCell id="224" value="SEARCH PATIENTS" style="html=1;verticalAlign=bottom;endArrow=block;fillColor=#53FF38;exitX=1;exitY=0.3333333333333333;exitDx=0;exitDy=0;exitPerimeter=0;" parent="222" source="153" target="225" edge="1">
                    <mxGeometry width="80" relative="1" as="geometry">
                        <mxPoint x="863" y="2335.999423660263" as="sourcePoint"/>
                        <mxPoint x="1050.87" y="2586.8653488372092" as="targetPoint"/>
                    </mxGeometry>
                </mxCell>
                <mxCell id="225" value="SEARCH PATIENTS (NAME, DOB, ETC)" style="rounded=1;whiteSpace=wrap;html=1;absoluteArcSize=1;arcSize=14;strokeWidth=2;fillColor=none;" parent="222" vertex="1">
                    <mxGeometry x="993" y="2426.8653488372092" width="100" height="100" as="geometry"/>
                </mxCell>
                <mxCell id="226" value="SELECT PATIENT" style="html=1;verticalAlign=bottom;endArrow=block;" parent="222" source="225" target="227" edge="1">
                    <mxGeometry width="80" relative="1" as="geometry">
                        <mxPoint x="1220.8700000000001" y="2686.874516129032" as="sourcePoint"/>
                        <mxPoint x="1310.8700000000001" y="2716.87" as="targetPoint"/>
                    </mxGeometry>
                </mxCell>
                <mxCell id="227" value="VIEW PATIENT DETAILS" style="rounded=1;whiteSpace=wrap;html=1;absoluteArcSize=1;arcSize=14;strokeWidth=2;fillColor=none;" parent="222" vertex="1">
                    <mxGeometry x="1243" y="2536.87" width="100" height="100" as="geometry"/>
                </mxCell>
                <mxCell id="228" value="VIEW PATIENT RECORDS" style="html=1;verticalAlign=bottom;endArrow=block;" parent="222" source="227" edge="1">
                    <mxGeometry width="80" relative="1" as="geometry">
                        <mxPoint x="1194" y="2569.995" as="sourcePoint"/>
                        <mxPoint x="1533" y="2628" as="targetPoint"/>
                    </mxGeometry>
                </mxCell>
                <mxCell id="230" value="REMINDERS" style="html=1;verticalAlign=bottom;endArrow=block;exitX=1;exitY=0.3333333333333333;exitDx=0;exitDy=0;exitPerimeter=0;" parent="222" source="153" target="231" edge="1">
                    <mxGeometry width="80" relative="1" as="geometry">
                        <mxPoint x="739" y="2127" as="sourcePoint"/>
                        <mxPoint x="780" y="1745" as="targetPoint"/>
                    </mxGeometry>
                </mxCell>
                <mxCell id="231" value="&lt;i&gt;&lt;font style=&quot;font-size: 10px&quot;&gt;YOU HAVE X APPTS TO BE CONFIRMED.&lt;br&gt;YOU NEXT APPT IS AT XX:XX AM ETC&lt;/font&gt;&lt;/i&gt;" style="rounded=1;whiteSpace=wrap;html=1;absoluteArcSize=1;arcSize=14;strokeWidth=2;" parent="222" vertex="1">
                    <mxGeometry x="730" y="1695" width="100" height="100" as="geometry"/>
                </mxCell>
                <mxCell id="232" value="WRITE/EDIT NOTES" style="html=1;verticalAlign=bottom;endArrow=block;" parent="222" target="233" edge="1">
                    <mxGeometry width="80" relative="1" as="geometry">
                        <mxPoint x="1522" y="2357.809523809524" as="sourcePoint"/>
                        <mxPoint x="1502" y="2274" as="targetPoint"/>
                    </mxGeometry>
                </mxCell>
                <mxCell id="233" value="SAVE CLINICAL NOTES" style="rounded=1;whiteSpace=wrap;html=1;absoluteArcSize=1;arcSize=14;strokeWidth=2;" parent="222" vertex="1">
                    <mxGeometry x="2052" y="2004" width="100" height="100" as="geometry"/>
                </mxCell>
                <mxCell id="234" value="VIEW PATIENT RECORDS" style="html=1;verticalAlign=bottom;endArrow=block;" parent="222" edge="1">
                    <mxGeometry width="80" relative="1" as="geometry">
                        <mxPoint x="1494" y="2434" as="sourcePoint"/>
                        <mxPoint x="1560" y="2584" as="targetPoint"/>
                    </mxGeometry>
                </mxCell>
                <mxCell id="235" value="ADD REFERRAL" style="html=1;verticalAlign=bottom;endArrow=block;" parent="222" target="236" edge="1">
                    <mxGeometry width="80" relative="1" as="geometry">
                        <mxPoint x="1522" y="2379" as="sourcePoint"/>
                        <mxPoint x="1972" y="2294" as="targetPoint"/>
                    </mxGeometry>
                </mxCell>
                <mxCell id="236" value="SEARCH + SELECT DOCTOR / HOSPITAL FOR REFERRAL" style="rounded=1;whiteSpace=wrap;html=1;absoluteArcSize=1;arcSize=14;strokeWidth=2;" parent="222" vertex="1">
                    <mxGeometry x="2122" y="2264" width="100" height="100" as="geometry"/>
                </mxCell>
                <mxCell id="237" value="VIEW PREVIOUS MEDICAL HISTORY" style="rounded=1;whiteSpace=wrap;html=1;absoluteArcSize=1;arcSize=14;strokeWidth=2;fillColor=none;" parent="222" vertex="1">
                    <mxGeometry x="1532" y="2584" width="100" height="100" as="geometry"/>
                </mxCell>
                <mxCell id="238" value="FINALISE APPT" style="html=1;verticalAlign=bottom;endArrow=block;" parent="222" target="239" edge="1">
                    <mxGeometry width="80" relative="1" as="geometry">
                        <mxPoint x="1522" y="2389" as="sourcePoint"/>
                        <mxPoint x="1892" y="2434" as="targetPoint"/>
                    </mxGeometry>
                </mxCell>
                <mxCell id="239" value="NOTES WRITTEN?" style="strokeWidth=2;html=1;shape=mxgraph.flowchart.decision;whiteSpace=wrap;" parent="222" vertex="1">
                    <mxGeometry x="1822" y="2374" width="100" height="100" as="geometry"/>
                </mxCell>
                <mxCell id="240" value="YES" style="html=1;verticalAlign=bottom;endArrow=block;" parent="222" source="239" target="241" edge="1">
                    <mxGeometry width="80" relative="1" as="geometry">
                        <mxPoint x="2002" y="2474.0036363636364" as="sourcePoint"/>
                        <mxPoint x="2182" y="2384" as="targetPoint"/>
                    </mxGeometry>
                </mxCell>
                <mxCell id="241" value="MARK APPT AS DONE. SEND PATIENT NOTES + PRESCRIPTION" style="rounded=1;whiteSpace=wrap;html=1;absoluteArcSize=1;arcSize=14;strokeWidth=2;" parent="222" vertex="1">
                    <mxGeometry x="2042" y="2404" width="100" height="100" as="geometry"/>
                </mxCell>
                <mxCell id="242" value="NO" style="html=1;verticalAlign=bottom;endArrow=block;" parent="222" edge="1">
                    <mxGeometry width="80" relative="1" as="geometry">
                        <mxPoint x="1914.8571428571431" y="2474" as="sourcePoint"/>
                        <mxPoint x="1522" y="2425.666666666667" as="targetPoint"/>
                        <Array as="points">
                            <mxPoint x="1932" y="2494"/>
                            <mxPoint x="1592" y="2484"/>
                        </Array>
                    </mxGeometry>
                </mxCell>
                <mxCell id="463" value="MANAGE EMAILS" style="html=1;verticalAlign=bottom;endArrow=block;exitX=1;exitY=0.3333333333333333;exitDx=0;exitDy=0;entryX=0;entryY=0.5;entryDx=0;entryDy=0;exitPerimeter=0;" parent="222" target="464" edge="1">
                    <mxGeometry width="80" relative="1" as="geometry">
                        <mxPoint x="599" y="2732" as="sourcePoint"/>
                        <mxPoint x="452.5" y="3183" as="targetPoint"/>
                    </mxGeometry>
                </mxCell>
                <mxCell id="464" value="VIEW EMAIL OPTIONS" style="rounded=1;whiteSpace=wrap;html=1;absoluteArcSize=1;arcSize=14;strokeWidth=2;fillColor=#FFFF00;" parent="222" vertex="1">
                    <mxGeometry x="780" y="2681.9953488372093" width="100" height="100" as="geometry"/>
                </mxCell>
                <mxCell id="465" value="DRAFT EMAIL TO ALL USERS/ PARTICULAR USER TYPES" style="html=1;verticalAlign=bottom;endArrow=block;exitX=1;exitY=0.5;exitDx=0;exitDy=0;entryX=0;entryY=0.5;entryDx=0;entryDy=0;" parent="222" source="464" target="466" edge="1">
                    <mxGeometry x="0.0021" y="5" width="80" relative="1" as="geometry">
                        <mxPoint x="852.5" y="2703" as="sourcePoint"/>
                        <mxPoint x="632.5" y="2873" as="targetPoint"/>
                        <mxPoint x="-1" as="offset"/>
                    </mxGeometry>
                </mxCell>
                <mxCell id="466" value="EMAIL FORM" style="rounded=1;whiteSpace=wrap;html=1;absoluteArcSize=1;arcSize=14;strokeWidth=2;" parent="222" vertex="1">
                    <mxGeometry x="1286" y="2714.9953488372093" width="100" height="100" as="geometry"/>
                </mxCell>
                <mxCell id="467" value="TRACK MEDICAL SUPPLIES" style="html=1;verticalAlign=bottom;endArrow=block;entryX=0;entryY=0.5;entryDx=0;entryDy=0;exitX=1;exitY=1;exitDx=0;exitDy=0;exitPerimeter=0;" parent="222" target="468" edge="1">
                    <mxGeometry width="80" relative="1" as="geometry">
                        <mxPoint x="599" y="2852" as="sourcePoint"/>
                        <mxPoint x="1102.5" y="2718" as="targetPoint"/>
                    </mxGeometry>
                </mxCell>
                <mxCell id="468" value="VIEW ALL MEDICINES (INCLUDING DESCRIPTION AND QUANTITIES OF EACH THAT ARE CURRENTLY AVAILABLE)" style="rounded=1;whiteSpace=wrap;html=1;absoluteArcSize=1;arcSize=14;strokeWidth=2;fillColor=#FFFF00;" parent="222" vertex="1">
                    <mxGeometry x="1105" y="2846" width="130" height="120" as="geometry"/>
                </mxCell>
                <mxCell id="469" value="ADD NEW MEDICINE" style="html=1;verticalAlign=bottom;endArrow=block;entryX=0;entryY=0.5;entryDx=0;entryDy=0;exitX=1;exitY=0.5;exitDx=0;exitDy=0;" parent="222" source="468" target="470" edge="1">
                    <mxGeometry width="80" relative="1" as="geometry">
                        <mxPoint x="1742" y="2736" as="sourcePoint"/>
                        <mxPoint x="1622" y="2901" as="targetPoint"/>
                    </mxGeometry>
                </mxCell>
                <mxCell id="470" value="RECORD MEDICINE RECORD" style="rounded=1;whiteSpace=wrap;html=1;absoluteArcSize=1;arcSize=14;strokeWidth=2;" parent="222" vertex="1">
                    <mxGeometry x="1817" y="2856" width="130" height="100" as="geometry"/>
                </mxCell>
                <mxCell id="471" value="REMOVE EXISTING MEDICINE" style="html=1;verticalAlign=bottom;endArrow=block;entryX=0;entryY=0.5;entryDx=0;entryDy=0;exitX=1;exitY=1;exitDx=0;exitDy=0;" parent="222" source="468" target="472" edge="1">
                    <mxGeometry width="80" relative="1" as="geometry">
                        <mxPoint x="1562" y="3016" as="sourcePoint"/>
                        <mxPoint x="1622" y="3031" as="targetPoint"/>
                    </mxGeometry>
                </mxCell>
                <mxCell id="472" value="DELETE MEDICINE RECORD" style="rounded=1;whiteSpace=wrap;html=1;absoluteArcSize=1;arcSize=14;strokeWidth=2;" parent="222" vertex="1">
                    <mxGeometry x="1817" y="2986" width="130" height="100" as="geometry"/>
                </mxCell>
                <mxCell id="473" value="EDIT MEDICINE DESCRIPTION OR QUANTITY" style="html=1;verticalAlign=bottom;endArrow=block;entryX=0;entryY=0.5;entryDx=0;entryDy=0;exitX=0.5;exitY=1;exitDx=0;exitDy=0;" parent="222" source="468" target="474" edge="1">
                    <mxGeometry width="80" relative="1" as="geometry">
                        <mxPoint x="1402" y="3096" as="sourcePoint"/>
                        <mxPoint x="1462" y="3111" as="targetPoint"/>
                    </mxGeometry>
                </mxCell>
                <mxCell id="474" value="UPDATE MEDICINE RECORD" style="rounded=1;whiteSpace=wrap;html=1;absoluteArcSize=1;arcSize=14;strokeWidth=2;" parent="222" vertex="1">
                    <mxGeometry x="1562" y="3086" width="130" height="100" as="geometry"/>
                </mxCell>
                <mxCell id="475" value="TRACK PERFORMANCE OF GP PRACTICE" style="html=1;verticalAlign=bottom;endArrow=block;exitX=0;exitY=1;exitDx=0;exitDy=0;exitPerimeter=0;" parent="222" target="476" edge="1">
                    <mxGeometry width="80" relative="1" as="geometry">
                        <mxPoint x="519" y="2852" as="sourcePoint"/>
                        <mxPoint x="442.5" y="3182.9953488372093" as="targetPoint"/>
                    </mxGeometry>
                </mxCell>
                <mxCell id="476" value="LIST OF METRICS TO TRACK" style="rounded=1;whiteSpace=wrap;html=1;absoluteArcSize=1;arcSize=14;strokeWidth=2;fillColor=#00FF00;" parent="222" vertex="1">
                    <mxGeometry x="312.5" y="3072.9953488372093" width="100" height="100" as="geometry"/>
                </mxCell>
                <mxCell id="477" value="TRACK PRESCRIPTIONS AND MEDICINES" style="html=1;verticalAlign=bottom;endArrow=block;exitX=0.5;exitY=1;exitDx=0;exitDy=0;" parent="222" source="476" target="478" edge="1">
                    <mxGeometry width="80" relative="1" as="geometry">
                        <mxPoint x="462.5" y="3293" as="sourcePoint"/>
                        <mxPoint x="292.5" y="3432.9953488372093" as="targetPoint"/>
                    </mxGeometry>
                </mxCell>
                <mxCell id="478" value="VIEW ALL MEDICINES (MOST POPULAR MEDICINE, &lt;br&gt;HOW MANY ACTIVE PRESCRIPTIONS RIGHT NOW, QUANTITIES LEFT OF EACH MEDICINE" style="rounded=1;whiteSpace=wrap;html=1;absoluteArcSize=1;arcSize=14;strokeWidth=2;" parent="222" vertex="1">
                    <mxGeometry x="-95.75" y="3402" width="333.5" height="146" as="geometry"/>
                </mxCell>
                <mxCell id="479" value="TRACK PATIENTS" style="html=1;verticalAlign=bottom;endArrow=block;exitX=0;exitY=0.5;exitDx=0;exitDy=0;" parent="222" source="476" target="480" edge="1">
                    <mxGeometry width="80" relative="1" as="geometry">
                        <mxPoint x="62.5" y="3002.9953488372093" as="sourcePoint"/>
                        <mxPoint x="-7.5" y="3262.9953488372093" as="targetPoint"/>
                    </mxGeometry>
                </mxCell>
                <mxCell id="480" value="VIEW NUMBER OF PATIENTS, &lt;br&gt;NUMBER OF APPOINTMENTS THEY'VE BOOKED,&lt;br&gt;NUMBER OF PRESCRIPTIONS,&lt;br&gt;NUMBER OF REFERRALS" style="rounded=1;whiteSpace=wrap;html=1;absoluteArcSize=1;arcSize=14;strokeWidth=2;" parent="222" vertex="1">
                    <mxGeometry x="-61" y="3093" width="264" height="155" as="geometry"/>
                </mxCell>
                <mxCell id="481" value="TRACK GPS" style="html=1;verticalAlign=bottom;endArrow=block;exitX=0;exitY=0;exitDx=0;exitDy=0;entryX=1;entryY=0.5;entryDx=0;entryDy=0;" parent="222" source="476" target="482" edge="1">
                    <mxGeometry width="80" relative="1" as="geometry">
                        <mxPoint x="62.5" y="2732.9953488372093" as="sourcePoint"/>
                        <mxPoint x="-7.5" y="2992.9953488372093" as="targetPoint"/>
                    </mxGeometry>
                </mxCell>
                <mxCell id="482" value="VIEW NUMBER OF GPS , &lt;br&gt;NUMBER OF APPOINTMENTS BOOKED OVERALL,&lt;br&gt;&amp;nbsp;NUMBER OF HOLIDAYS TAKEN OVERALL" style="rounded=1;whiteSpace=wrap;html=1;absoluteArcSize=1;arcSize=14;strokeWidth=2;" parent="222" vertex="1">
                    <mxGeometry x="-61" y="2836" width="287" height="182" as="geometry"/>
                </mxCell>
                <mxCell id="483" value="ASSIGN NEW ADMIN" style="html=1;verticalAlign=bottom;endArrow=block;exitX=0;exitY=0.75;exitDx=0;exitDy=0;" parent="222" target="484" edge="1">
                    <mxGeometry width="80" relative="1" as="geometry">
                        <mxPoint x="912.5" y="3398" as="sourcePoint"/>
                        <mxPoint x="742.5" y="3562.9953488372093" as="targetPoint"/>
                    </mxGeometry>
                </mxCell>
                <mxCell id="484" value="SUCCESSFUL&amp;nbsp; ASSIGNMENT MESSAGE" style="rounded=1;whiteSpace=wrap;html=1;absoluteArcSize=1;arcSize=14;strokeWidth=2;fillColor=#FFFF66;" parent="222" vertex="1">
                    <mxGeometry x="582.5" y="3542.9953488372093" width="100" height="100" as="geometry"/>
                </mxCell>
                <mxCell id="485" value="VIEW PAST/UPCOMING APPOINTMENTS" style="html=1;verticalAlign=bottom;endArrow=block;" parent="222" target="486" edge="1">
                    <mxGeometry width="80" relative="1" as="geometry">
                        <mxPoint x="1552.5" y="3508.294117647059" as="sourcePoint"/>
                        <mxPoint x="1842.5" y="3483" as="targetPoint"/>
                    </mxGeometry>
                </mxCell>
                <mxCell id="486" value="CALENDAR" style="rounded=1;whiteSpace=wrap;html=1;absoluteArcSize=1;arcSize=14;strokeWidth=2;fillColor=#FFFF33;" parent="222" vertex="1">
                    <mxGeometry x="1792.5" y="3373" width="100" height="100" as="geometry"/>
                </mxCell>
                <mxCell id="487" value="SEARCH PATIENTS" style="html=1;verticalAlign=bottom;endArrow=block;exitX=1;exitY=0;exitDx=0;exitDy=0;entryX=0;entryY=0.5;entryDx=0;entryDy=0;fillColor=#FF0000;" parent="222" target="488" edge="1">
                    <mxGeometry width="80" relative="1" as="geometry">
                        <mxPoint x="1552.5" y="3473" as="sourcePoint"/>
                        <mxPoint x="1772.5" y="3272.9953488372093" as="targetPoint"/>
                    </mxGeometry>
                </mxCell>
                <mxCell id="488" value="ASSIGN PATIENT A NEW GP" style="rounded=1;whiteSpace=wrap;html=1;absoluteArcSize=1;arcSize=14;strokeWidth=2;fillColor=#FF0000;" parent="222" vertex="1">
                    <mxGeometry x="1722.5" y="3222.9953488372093" width="100" height="100" as="geometry"/>
                </mxCell>
                <mxCell id="489" value="ASSIGN NEW GP FOR PATIENT" style="html=1;verticalAlign=bottom;endArrow=block;exitX=0;exitY=0.5;exitDx=0;exitDy=0;fillColor=#FF0000;" parent="222" target="490" edge="1">
                    <mxGeometry width="80" relative="1" as="geometry">
                        <mxPoint x="1202.5" y="3693" as="sourcePoint"/>
                        <mxPoint x="942.5" y="3739.78" as="targetPoint"/>
                    </mxGeometry>
                </mxCell>
                <mxCell id="490" value="VIEW PATIENT'S NEW GP" style="rounded=1;whiteSpace=wrap;html=1;absoluteArcSize=1;arcSize=14;strokeWidth=2;fillColor=#FF0000;" parent="222" vertex="1">
                    <mxGeometry x="818" y="3881" width="100" height="100" as="geometry"/>
                </mxCell>
                <mxCell id="496" value="forgot password?" style="rhombus;whiteSpace=wrap;html=1;strokeWidth=2;" parent="222" vertex="1">
                    <mxGeometry x="-477" y="2372" width="105" height="80" as="geometry"/>
                </mxCell>
                <mxCell id="497" value="send reset email" style="whiteSpace=wrap;html=1;strokeWidth=2;" parent="222" vertex="1">
                    <mxGeometry x="-303" y="2382" width="120" height="60" as="geometry"/>
                </mxCell>
                <mxCell id="498" value="" style="edgeStyle=orthogonalEdgeStyle;rounded=0;orthogonalLoop=1;jettySize=auto;html=1;endArrow=classic;endFill=1;exitX=0.5;exitY=1;exitDx=0;exitDy=0;entryX=0.5;entryY=0;entryDx=0;entryDy=0;" parent="222" target="496" edge="1">
                    <mxGeometry relative="1" as="geometry">
                        <mxPoint x="-423" y="2343" as="sourcePoint"/>
                        <mxPoint x="-413" y="2158" as="targetPoint"/>
                    </mxGeometry>
                </mxCell>
                <mxCell id="499" value="" style="endArrow=classic;html=1;exitX=1;exitY=0.5;exitDx=0;exitDy=0;" parent="222" source="496" target="497" edge="1">
                    <mxGeometry width="50" height="50" relative="1" as="geometry">
                        <mxPoint x="-360.5" y="2198" as="sourcePoint"/>
                        <mxPoint x="-181" y="2198" as="targetPoint"/>
                    </mxGeometry>
                </mxCell>
            </root>
        </mxGraphModel>
    </diagram>
</mxfile>